<svg id="Layer_1" data-name="Layer 1" xmlns="http://www.w3.org/2000/svg" viewBox="0 0 472 166"><title>Artboard 1</title><polygon points="67.61 99.95 64.48 126.07 70.88 126.07 67.74 99.95 67.61 99.95"/><path d="M128.7,100c-2.64,0-3.14,1.76-3.14,4.27v30.51c0,2.51.5,4.27,3.14,4.27s3.14-1.76,3.14-4.27V104.22C131.83,101.71,131.33,100,128.7,100Z"/><path d="M12.63,87.79V151H148.14V87.79Zm23.78,12.54H31.77v41.81H27.63V100.33H23V96.81H36.42Zm17.2,0H46.77v16.51H53.3v3.52H46.77v18.27h6.84v3.52h-11V96.81h11ZM73,142.14l-1.7-12.56H64l-1.69,12.56H58.2l6.65-45.33H70.5l6.65,45.33Zm19.84-41.81H88.2v41.81H84.06V100.33H79.42V96.81H92.85Zm20.46,41.81h-4.14v-19c0-2.2-1.32-2.76-3.26-2.76h-2.76v21.79H99V96.81h7.72c4,0,6.4.69,6.4,5.21v11.49c0,3.52-1.32,4.71-4.52,4.9v.13c3,.19,4.71,1.07,4.71,4.21ZM136,134.86c0,4.46-1.7,7.66-7.28,7.66s-7.28-3.2-7.28-7.66V104.1c0-4.46,1.7-7.66,7.28-7.66s7.28,3.2,7.28,7.66Z"/><path d="M109,103.4c0-2.64-1.38-3.08-3.52-3.08h-2.32v16.51h2.76c1.95,0,3.08-.56,3.08-3.26Z"/><path d="M238.94,96.81h4.14v41.81h6.84v3.52h-11Z"/><path d="M267.63,129.58h-7.28l-1.7,12.56H254.5l6.65-45.33h5.65l6.65,45.33h-4.14ZM264,100h-.13l-3.14,26.12h6.4Z"/><path d="M157.64,96.81h6.59c5.34,0,6.91,1.76,6.91,6.91v11.11c0,5.15-1.57,6.91-6.91,6.91h-2.45v20.4h-4.14Zm6.15,21.41c1.88,0,3.2-.5,3.2-2.82V103.15c0-2.32-1.32-2.83-3.2-2.83h-2v17.89Z"/><path d="M176.66,104.1c0-4.46,1.7-7.66,7.28-7.66s7.28,3.2,7.28,7.66v30.76c0,4.46-1.7,7.66-7.28,7.66s-7.28-3.2-7.28-7.66Zm4.14,30.64c0,2.51.5,4.27,3.14,4.27s3.14-1.76,3.14-4.27V104.22c0-2.51-.5-4.27-3.14-4.27s-3.14,1.76-3.14,4.27Z"/><path d="M209.3,123.12c0-2.2-1.32-2.76-3.26-2.76h-2.76v21.79h-4.14V96.81h7.72c4,0,6.4.69,6.4,5.21v11.49c0,3.52-1.32,4.71-4.52,4.9v.13c3,.19,4.71,1.07,4.71,4.21v19.4H209.3ZM206,116.84c1.95,0,3.08-.56,3.08-3.26V103.4c0-2.64-1.38-3.08-3.52-3.08h-2.32v16.51Z"/><path d="M394.48,100.33h-2.2v38.3h2.2c2.76,0,3.64-.88,3.64-3.52V103.84C398.12,101.21,397.24,100.33,394.48,100.33Z"/><path d="M303,100.33h-2.2v38.3H303c2.76,0,3.64-.88,3.64-3.52V103.84C306.65,101.21,305.78,100.33,303,100.33Z"/><polygon points="416.95 99.95 413.81 126.07 420.22 126.07 417.08 99.95 416.95 99.95"/><path d="M284.38,87.79V151H459V87.79Zm26.42,47c0,4.46-1.38,7.34-7,7.34h-7.09V96.81h7.09c5.65,0,7,2.89,7,7.35ZM323,142.14h-4.14V96.81H323Zm22.48-33.46h-4.14v-4.52c0-2.51-.63-4.21-3-4.21s-3,1.69-3,4.21v30.32c0,3.7,1.82,4.52,3.26,4.52a5.45,5.45,0,0,0,2.76-.63V123.43H338v-3.52h7.47v21.22a17.68,17.68,0,0,1-6.53,1.38c-5.71,0-7.78-2.76-7.78-8v-31c0-4.71,2.64-7.16,7.16-7.16s7.16,2.45,7.16,7.16Zm22.6,33.46h-5.9L357,101.84h-.13v40.3h-3.64V96.81h6l5.09,38.8h.13V96.81h3.64Zm11.86,0h-4.14V96.81H380Zm22.29-7.34c0,4.46-1.38,7.34-7,7.34h-7.09V96.81h7.09c5.65,0,7,2.89,7,7.35Zm20.09,7.34-1.69-12.56h-7.28l-1.7,12.56h-4.14l6.65-45.33h5.65l6.65,45.33Zm24.17-7.34c0,4.46-1.38,7.34-7,7.34h-7.09V96.81h7.09c5.65,0,7,2.89,7,7.35Z"/><path d="M438.73,100.33h-2.2v38.3h2.2c2.76,0,3.64-.88,3.64-3.52V103.84C442.38,101.21,441.5,100.33,438.73,100.33Z"/><path d="M327.19,26.22c-2.64,0-3.14,1.76-3.14,4.27V61c0,2.51.5,4.27,3.14,4.27s3.14-1.76,3.14-4.27V30.49C330.33,28,329.83,26.22,327.19,26.22Z"/><path d="M125,14.06V77.32H346.64V14.06Zm34,54.35h-3.64V26.6h-.13l-4.77,41.81h-5.15L140.49,26.6h-.13V68.41h-3.64V23.09h6.4l4.65,40.56h.13l4.65-40.56H159Zm22.16-7.28c0,4.46-1.7,7.66-7.28,7.66s-7.28-3.2-7.28-7.66V30.37c0-4.46,1.7-7.66,7.28-7.66s7.28,3.2,7.28,7.66Zm16.51,7.28h-6l-5.27-45.33h4.14l4.08,41.18h.13l4.08-41.18h4.14Zm14.63,0H208.1V23.09h4.14Zm29.82,0h-3.64V26.6h-.13l-4.77,41.81h-5.15L223.61,26.6h-.13V68.41h-3.64V23.09h6.4l4.65,40.56H231l4.65-40.56h6.4Zm11.74,0h-4.14V23.09h4.14Zm19-41.81h-6.84V43.11h6.53v3.52h-6.53V64.9h6.84v3.52h-11V23.09h11ZM294.3,68.41h-5.9l-5.21-40.31h-.13V68.41h-3.64V23.09h6l5.09,38.8h.13V23.09h3.64Zm19.4-41.81H309V68.41H304.9V26.6h-4.65V23.09h13.43Zm20.78,34.53c0,4.46-1.7,7.66-7.28,7.66s-7.28-3.2-7.28-7.66V30.37c0-4.46,1.7-7.66,7.28-7.66s7.28,3.2,7.28,7.66Z"/><path d="M173.83,26.22c-2.64,0-3.14,1.76-3.14,4.27V61c0,2.51.5,4.27,3.14,4.27S177,63.52,177,61V30.49C177,28,176.46,26.22,173.83,26.22Z"/></svg>