<svg id="svg" version="1.1" xmlns="http://www.w3.org/2000/svg" xmlns:xlink="http://www.w3.org/1999/xlink" width="400" height="221.4736842105263" viewBox="0, 0, 400,221.4736842105263"><g id="svgg"><path id="path0" d="M150.737 69.579 L 150.737 83.789 202.316 83.789 L 253.895 83.789 253.895 69.579 L 253.895 55.368 202.316 55.368 L 150.737 55.368 150.737 69.579 M158.961 59.376 C 159.245 59.528,159.368 59.818,159.368 60.333 C 159.368 60.739,159.505 61.991,159.671 63.115 C 160.118 66.134,160.452 68.734,160.638 70.632 C 161.113 75.497,161.532 77.126,161.769 75.029 C 161.964 73.297,162.294 70.172,162.543 67.684 C 162.659 66.526,162.892 64.721,163.061 63.672 C 163.230 62.623,163.370 61.439,163.371 61.041 C 163.378 59.466,163.476 59.368,165.049 59.368 L 166.469 59.368 166.603 60.345 C 166.677 60.882,166.737 65.364,166.737 70.305 C 166.737 79.752,166.687 80.268,165.817 79.934 C 165.189 79.693,165.085 78.872,164.814 71.972 C 164.539 64.993,164.411 64.488,164.020 68.842 C 163.545 74.125,162.897 78.635,162.504 79.397 C 162.053 80.272,160.640 80.027,160.260 79.008 C 159.983 78.263,158.943 70.534,158.615 66.777 C 158.391 64.206,158.296 65.150,158.099 71.926 C 157.878 79.507,157.821 80.000,157.159 80.000 C 156.321 80.000,156.170 78.460,156.054 68.781 C 155.957 60.566,155.974 59.956,156.323 59.571 C 156.741 59.109,158.254 58.998,158.961 59.376 M175.092 59.421 C 176.992 60.274,177.053 60.590,177.053 69.676 C 177.053 78.552,177.020 78.760,175.516 79.563 C 173.530 80.623,171.152 79.882,170.502 78.000 C 170.174 77.052,170.068 63.091,170.378 61.632 C 170.788 59.697,173.195 58.569,175.092 59.421 M181.013 59.776 C 181.459 60.508,181.999 63.839,182.313 67.789 C 182.595 71.343,182.961 74.650,183.148 75.350 C 183.317 75.983,183.790 73.485,183.789 71.959 C 183.789 71.461,183.880 70.295,183.990 69.368 C 184.101 68.442,184.344 66.311,184.531 64.632 C 185.031 60.132,185.215 59.489,186.019 59.410 C 187.131 59.302,187.231 59.652,186.864 62.355 C 186.686 63.665,186.440 65.732,186.317 66.947 C 186.194 68.163,185.954 70.118,185.784 71.292 C 185.613 72.466,185.470 73.792,185.466 74.239 C 185.462 74.687,185.323 75.668,185.158 76.421 C 184.992 77.174,184.854 78.158,184.850 78.608 C 184.840 79.640,184.412 79.985,183.128 79.993 C 182.054 80.001,181.474 79.186,181.474 77.670 C 181.474 77.320,181.336 76.114,181.167 74.990 C 180.998 73.867,180.759 71.953,180.635 70.737 C 180.511 69.521,180.271 67.484,180.102 66.211 C 179.711 63.273,179.484 59.692,179.671 59.390 C 179.940 58.954,180.636 59.154,181.013 59.776 M191.320 60.316 C 191.623 61.507,191.601 78.772,191.295 79.405 C 190.937 80.148,190.054 80.088,189.772 79.301 C 189.475 78.475,189.414 59.799,189.707 59.446 C 190.268 58.770,191.032 59.182,191.320 60.316 M197.610 59.319 C 197.887 59.496,198.409 61.999,198.719 64.632 C 199.852 74.260,200.511 77.489,200.610 73.895 C 200.621 73.489,200.768 72.211,200.937 71.053 C 201.105 69.895,201.393 67.621,201.577 66.000 C 202.375 58.969,202.294 59.175,204.263 59.165 L 205.474 59.158 205.456 64.579 C 205.415 76.679,205.163 80.353,204.405 79.885 C 203.883 79.562,203.723 77.839,203.602 71.263 C 203.456 63.367,203.437 63.414,202.093 74.947 C 201.581 79.346,201.355 80.000,200.349 80.000 C 198.941 80.000,198.967 80.083,198.208 73.368 C 197.692 68.807,197.232 65.400,197.086 65.053 C 197.013 64.879,196.899 67.911,196.832 71.789 C 196.710 78.868,196.585 80.000,195.925 80.000 C 195.359 80.000,195.294 79.001,195.213 69.105 L 195.132 59.158 196.250 59.161 C 196.865 59.163,197.477 59.234,197.610 59.319 M210.553 59.506 C 210.930 59.960,211.097 77.820,210.737 79.157 C 210.374 80.506,209.359 80.408,209.118 79.000 C 208.895 77.691,208.896 61.935,209.120 60.368 C 209.307 59.062,209.892 58.710,210.553 59.506 M219.537 59.411 C 220.363 60.237,219.631 61.053,218.063 61.053 L 216.842 61.053 216.842 64.632 L 216.842 68.211 217.909 68.211 C 219.232 68.211,219.789 68.491,219.789 69.158 C 219.789 69.825,219.232 70.105,217.909 70.105 L 216.842 70.105 216.842 74.105 L 216.842 78.105 217.947 78.112 C 219.152 78.119,219.791 78.455,219.786 79.076 C 219.779 79.939,219.541 80.018,217.141 79.955 L 214.842 79.895 214.777 71.895 C 214.742 67.495,214.775 62.829,214.851 61.526 L 214.989 59.158 217.137 59.158 C 218.526 59.158,219.373 59.247,219.537 59.411 M225.648 59.341 C 225.801 59.439,225.970 59.935,226.023 60.443 C 226.130 61.476,226.605 64.960,227.053 68.000 C 227.215 69.100,227.409 70.592,227.484 71.316 C 227.729 73.679,228.000 72.968,228.002 69.960 C 228.005 65.249,228.385 59.947,228.745 59.586 C 229.603 58.727,229.659 59.321,229.726 69.895 L 229.789 79.895 228.606 79.957 L 227.422 80.019 227.079 79.163 C 226.891 78.693,226.737 78.096,226.737 77.838 C 226.737 77.580,226.600 76.611,226.433 75.684 C 226.265 74.758,226.024 73.005,225.896 71.789 C 225.768 70.574,225.525 68.584,225.357 67.368 C 225.190 66.153,225.027 64.874,224.996 64.526 C 224.965 64.179,224.861 67.021,224.765 70.842 C 224.555 79.204,224.488 79.870,223.856 79.960 C 222.974 80.086,222.882 79.142,222.790 69.087 C 222.710 60.245,222.726 59.738,223.090 59.462 C 223.513 59.142,225.207 59.062,225.648 59.341 M238.729 59.565 C 239.067 60.196,238.672 60.971,237.938 61.118 C 237.001 61.305,236.989 61.406,236.822 70.000 C 236.659 78.456,236.574 79.482,236.012 79.783 C 234.918 80.369,234.745 78.615,234.899 68.474 L 235.012 61.053 234.085 61.046 C 233.059 61.039,232.421 60.678,232.421 60.105 C 232.421 59.094,238.212 58.598,238.729 59.565 M246.972 59.591 C 248.281 60.259,248.463 60.906,248.655 65.579 C 248.861 70.598,248.612 77.546,248.193 78.416 C 247.299 80.276,243.921 80.604,242.446 78.975 C 241.488 77.916,241.412 61.405,242.360 60.263 C 243.238 59.205,245.554 58.868,246.972 59.591 M172.761 61.348 C 172.467 61.967,172.421 63.131,172.421 69.979 L 172.421 77.895 173.558 77.895 L 174.695 77.895 174.843 75.526 C 175.176 70.167,174.895 61.632,174.368 61.105 C 173.687 60.424,173.161 60.504,172.761 61.348 M244.432 61.032 C 243.923 61.984,243.733 65.774,243.891 71.842 L 244.048 77.895 245.287 77.895 L 246.526 77.895 246.526 70.049 C 246.526 62.802,246.496 62.148,246.135 61.470 C 245.661 60.585,244.791 60.361,244.432 61.032 M94.316 109.158 L 94.316 123.368 125.895 123.368 L 157.474 123.368 157.474 109.158 L 157.474 94.947 125.895 94.947 L 94.316 94.947 94.316 109.158 M221.263 109.158 L 221.263 123.368 261.895 123.368 L 302.526 123.368 302.526 109.158 L 302.526 94.947 261.895 94.947 L 221.263 94.947 221.263 109.158 M112.904 98.855 C 114.261 99.375,113.323 100.443,111.387 100.581 L 109.895 100.688 109.895 104.106 L 109.895 107.525 110.956 107.665 C 113.874 108.053,114.281 109.684,111.459 109.684 L 109.895 109.684 109.895 113.684 L 109.895 117.684 111.105 117.687 C 112.700 117.691,113.263 117.858,113.263 118.325 C 113.263 119.167,112.718 119.368,110.436 119.368 L 108.271 119.368 108.135 118.074 C 107.948 116.281,107.971 99.529,108.161 99.233 C 108.527 98.663,111.737 98.407,112.904 98.855 M120.940 99.012 C 121.322 99.595,121.769 101.874,122.330 106.105 C 122.445 106.974,122.676 108.537,122.842 109.579 C 124.250 118.410,124.352 119.584,123.714 119.576 C 122.415 119.561,122.189 119.069,121.576 114.918 C 121.341 113.325,118.104 113.605,118.106 115.219 C 118.106 115.774,117.520 118.429,117.244 119.118 C 117.087 119.511,116.917 119.593,116.367 119.540 L 115.684 119.474 115.738 118.000 C 115.788 116.601,116.082 114.235,116.732 110.000 C 116.892 108.958,117.131 107.253,117.264 106.211 C 117.397 105.168,117.640 103.665,117.805 102.869 C 117.970 102.073,118.105 101.164,118.105 100.848 C 118.105 98.987,120.084 97.705,120.940 99.012 M131.294 98.973 C 131.931 99.501,131.249 100.632,130.293 100.632 C 129.724 100.632,129.658 101.385,129.485 109.789 C 129.310 118.341,129.173 119.474,128.315 119.474 C 127.687 119.474,127.618 118.466,127.597 109.000 L 127.579 100.632 126.895 100.628 C 125.619 100.623,124.775 99.904,125.225 99.208 C 125.623 98.591,130.602 98.399,131.294 98.973 M139.520 99.085 C 141.391 99.999,142.060 105.185,140.634 107.713 L 140.005 108.828 140.581 109.405 L 141.158 109.983 141.158 113.991 C 141.158 118.147,140.985 119.188,140.249 119.470 C 139.626 119.709,139.369 118.980,139.365 116.960 C 139.355 111.198,138.952 109.606,137.537 109.724 C 136.514 109.810,136.471 109.985,136.430 114.316 C 136.388 118.666,136.267 119.450,135.617 119.542 C 134.504 119.701,134.526 119.922,134.526 108.786 L 134.526 98.465 136.626 98.581 C 138.041 98.659,138.984 98.823,139.520 99.085 M247.914 99.083 C 249.751 99.935,250.469 104.421,248.768 104.421 C 248.083 104.421,247.869 104.090,247.724 102.801 C 247.539 101.151,247.089 100.421,246.256 100.421 C 244.969 100.421,244.954 100.510,244.885 109.000 L 244.823 116.631 245.349 117.158 C 246.825 118.633,247.685 117.710,247.682 114.652 C 247.680 111.930,247.555 111.340,246.921 111.053 C 245.310 110.324,245.939 109.388,248.095 109.307 L 249.725 109.245 249.652 114.008 C 249.569 119.448,249.644 119.238,247.678 119.484 C 244.828 119.840,243.411 119.078,242.986 116.959 C 242.647 115.270,242.647 103.044,242.987 101.351 C 243.456 99.009,245.613 98.016,247.914 99.083 M255.641 99.000 C 256.202 99.524,256.617 101.417,257.060 105.474 C 257.193 106.689,257.427 108.442,257.581 109.368 C 257.735 110.295,257.923 111.605,258.000 112.281 C 258.280 114.743,258.423 113.081,258.526 106.163 C 258.622 99.761,258.666 99.076,258.996 98.868 C 260.060 98.198,260.100 98.557,260.166 109.355 L 260.226 119.327 259.132 119.477 C 257.705 119.673,257.436 119.332,257.087 116.882 C 256.944 115.876,256.693 114.200,256.531 113.158 C 256.156 110.754,255.637 107.034,255.429 105.263 C 255.213 103.419,255.008 107.502,254.972 114.343 C 254.946 119.311,254.850 119.829,254.014 119.508 C 253.321 119.242,252.793 108.000,253.171 101.542 L 253.320 98.992 253.976 98.781 C 254.953 98.466,255.089 98.484,255.641 99.000 M284.247 99.383 C 284.325 99.665,284.545 100.842,284.736 102.000 C 284.927 103.158,285.215 104.863,285.375 105.789 C 285.536 106.716,285.770 108.232,285.897 109.158 C 286.128 110.854,286.440 112.807,287.042 116.334 C 287.554 119.331,287.521 119.579,286.621 119.579 C 285.783 119.579,285.067 118.463,285.057 117.143 C 285.042 115.003,284.189 113.895,282.557 113.895 C 281.315 113.895,281.108 114.189,281.001 116.105 C 280.871 118.437,280.368 119.474,279.367 119.474 L 278.632 119.474 278.685 118.105 C 278.714 117.353,278.887 115.837,279.069 114.737 C 279.563 111.763,279.944 109.349,280.201 107.579 C 281.191 100.757,281.627 99.026,282.413 98.793 C 283.314 98.526,284.077 98.772,284.247 99.383 M105.026 99.251 C 105.467 99.692,105.115 100.291,104.363 100.381 C 103.275 100.512,103.276 100.504,103.110 109.663 C 102.949 118.597,102.871 119.438,102.196 119.528 C 101.150 119.666,101.166 119.792,101.046 110.271 C 100.925 100.536,100.944 100.687,99.779 100.500 C 98.621 100.315,98.363 99.110,99.431 98.870 C 100.515 98.626,104.685 98.910,105.026 99.251 M150.271 99.129 C 150.315 99.261,150.461 99.369,150.596 99.370 C 151.443 99.376,152.100 114.755,151.370 117.466 C 150.638 120.185,145.730 120.425,145.207 117.767 C 144.622 114.789,144.877 100.404,145.528 99.619 C 146.215 98.791,150.027 98.397,150.271 99.129 M173.158 98.867 C 172.288 99.077,171.829 99.436,171.343 100.284 L 170.842 101.158 170.842 109.158 C 170.842 117.133,170.844 117.161,171.329 118.007 C 172.651 120.313,176.604 119.900,177.236 117.391 C 177.561 116.097,177.561 102.218,177.236 100.925 C 176.850 99.395,174.948 98.435,173.158 98.867 M231.806 99.237 C 233.335 99.882,233.474 100.695,233.474 109.021 C 233.474 119.155,233.387 119.368,229.247 119.368 L 226.737 119.368 226.737 109.173 C 226.737 99.646,226.761 98.971,227.105 98.868 C 227.794 98.662,231.049 98.917,231.806 99.237 M238.782 99.211 C 239.088 99.746,239.188 117.728,238.891 118.789 C 238.676 119.558,237.599 119.633,237.385 118.895 C 236.804 116.890,236.675 99.760,237.236 99.085 C 237.653 98.583,238.461 98.649,238.782 99.211 M265.004 98.913 C 265.512 99.235,265.739 103.778,265.611 111.053 C 265.465 119.425,265.399 119.860,264.336 119.452 C 263.660 119.193,263.545 99.364,264.217 98.939 C 264.595 98.700,264.665 98.698,265.004 98.913 M274.535 99.233 C 275.899 99.809,275.895 99.779,275.895 109.032 C 275.895 119.787,276.060 119.368,271.812 119.368 L 269.539 119.368 269.402 116.684 C 269.231 113.344,269.225 100.060,269.393 99.432 C 269.597 98.671,272.900 98.543,274.535 99.233 M295.054 99.175 C 296.678 99.809,297.314 106.237,296.615 114.953 C 296.282 119.112,296.038 119.368,292.412 119.368 L 290.172 119.368 290.034 115.105 C 289.704 104.914,289.872 99.056,290.501 98.863 C 291.075 98.686,294.382 98.912,295.054 99.175 M161.939 108.550 C 162.014 118.502,162.076 119.158,162.947 119.158 C 163.651 119.158,163.789 118.326,163.789 114.092 L 163.789 110.105 164.853 110.105 C 167.742 110.105,168.811 107.212,167.982 101.639 C 167.637 99.318,167.644 99.323,164.519 99.202 L 161.867 99.100 161.939 108.550 M181.053 109.134 L 181.053 119.158 181.774 119.158 C 183.181 119.158,183.223 118.991,183.051 114.067 L 182.898 109.684 184.502 109.684 L 186.105 109.684 186.105 114.302 C 186.105 118.704,186.124 118.925,186.518 119.050 C 187.699 119.425,187.789 119.092,187.789 114.397 L 187.789 110.073 187.158 109.441 C 186.422 108.706,186.384 108.512,186.918 108.226 C 187.673 107.822,187.823 106.958,187.752 103.401 C 187.665 99.046,187.889 99.298,183.997 99.191 L 181.053 99.110 181.053 109.134 M199.947 99.737 C 199.766 100.151,199.674 103.013,199.623 109.766 L 199.551 119.217 202.114 119.111 C 203.950 119.036,204.726 118.925,204.852 118.720 C 205.181 118.188,204.624 117.914,203.087 117.851 L 201.579 117.789 201.474 108.737 C 201.416 103.758,201.292 99.566,201.198 99.421 C 200.896 98.954,200.214 99.126,199.947 99.737 M209.933 100.474 C 209.812 101.197,209.605 102.642,209.473 103.684 C 209.341 104.726,209.101 106.432,208.940 107.474 C 207.763 115.096,207.579 116.491,207.579 117.784 C 207.579 120.532,208.999 119.304,209.398 116.211 C 209.549 115.041,209.728 113.994,209.796 113.884 C 209.968 113.606,212.784 113.631,212.958 113.912 C 213.183 114.275,213.668 116.467,213.677 117.158 C 213.688 117.970,214.411 119.159,214.892 119.155 C 215.747 119.147,215.860 118.869,215.612 117.390 C 215.483 116.625,215.275 115.312,215.149 114.473 C 215.023 113.634,214.790 112.142,214.632 111.158 C 213.750 105.662,213.337 102.901,213.160 101.308 C 212.936 99.296,212.823 99.158,211.397 99.158 L 210.153 99.158 209.933 100.474 M174.511 100.308 C 175.361 100.748,175.404 101.084,175.516 108.161 C 175.652 116.804,175.396 118.315,173.844 118.024 C 172.784 117.825,172.629 116.710,172.641 109.351 C 172.655 100.368,172.845 99.447,174.511 100.308 M147.269 100.758 C 146.935 101.267,146.683 117.069,147.004 117.390 C 147.032 117.418,147.647 117.508,148.370 117.590 L 149.684 117.739 149.678 111.975 C 149.672 106.098,149.410 100.905,149.104 100.599 C 148.598 100.093,147.651 100.175,147.269 100.758 M184.895 100.762 C 185.950 101.072,186.368 106.704,185.407 107.664 C 183.773 109.299,183.071 108.196,182.978 103.845 L 182.903 100.366 183.715 100.510 C 184.161 100.589,184.692 100.703,184.895 100.762 M291.789 109.086 C 291.789 118.800,291.586 117.820,293.550 117.550 L 294.526 117.416 294.526 109.129 C 294.526 101.382,294.502 100.841,294.158 100.830 C 293.955 100.823,293.339 100.743,292.789 100.652 L 291.789 100.488 291.789 109.086 M136.665 101.168 C 136.360 101.838,136.339 106.611,136.639 107.172 C 136.898 107.656,138.337 107.745,138.707 107.299 C 139.443 106.413,139.331 101.497,138.562 100.912 C 137.931 100.432,136.940 100.565,136.665 101.168 M165.834 101.263 C 166.198 101.986,166.197 107.280,165.833 108.000 C 165.324 109.006,164.158 108.747,163.940 107.579 C 163.740 106.508,163.864 101.233,164.097 100.855 C 164.372 100.411,165.544 100.687,165.834 101.263 M228.632 109.158 L 228.632 117.684 229.382 117.684 C 230.153 117.684,230.934 117.378,231.207 116.968 C 231.292 116.841,231.363 113.306,231.365 109.113 C 231.369 100.381,231.423 100.632,229.539 100.632 L 228.632 100.632 228.632 109.158 M271.368 109.158 L 271.368 117.684 272.158 117.678 C 273.942 117.662,274.084 117.036,274.084 109.158 C 274.084 101.246,273.946 100.632,272.170 100.632 L 271.368 100.632 271.368 109.158 M282.570 103.526 C 281.435 112.705,281.394 111.994,283.053 111.994 C 284.328 111.994,284.466 111.832,284.225 110.616 C 284.112 110.046,283.870 108.158,283.686 106.421 C 283.103 100.889,282.946 100.484,282.570 103.526 M211.880 103.247 C 213.123 111.614,213.102 112.002,211.414 111.997 C 209.965 111.992,209.779 111.815,210.059 110.704 C 210.186 110.201,210.443 108.321,210.631 106.526 C 211.135 101.707,211.134 101.710,211.490 102.197 C 211.652 102.418,211.827 102.891,211.880 103.247 M119.506 102.949 C 119.425 103.238,119.268 104.468,119.158 105.684 C 118.879 108.779,118.595 110.990,118.425 111.408 C 118.249 111.842,119.382 112.123,120.405 111.898 L 121.052 111.756 120.935 110.246 C 120.870 109.416,120.732 108.121,120.629 107.368 C 120.526 106.616,120.384 105.479,120.312 104.842 C 120.241 104.205,120.063 103.401,119.918 103.055 L 119.655 102.425 119.506 102.949 " stroke="none" fill="#f8f8f8" fill-rule="evenodd"></path><path id="path1" d="M0.052 110.684 L 0.000 221.474 200.000 221.474 L 400.000 221.474 400.000 110.737 L 400.000 0.000 200.211 0.000 L 0.421 0.000 0.369 69.000 L 0.317 138.000 0.211 68.947 C 0.110 3.296,0.102 5.352,0.052 110.684 M254.105 69.684 L 254.105 84.000 202.316 84.000 L 150.526 84.000 150.526 69.684 L 150.526 55.368 202.316 55.368 L 254.105 55.368 254.105 69.684 M156.713 59.402 C 155.964 59.765,155.799 64.594,156.218 73.895 C 156.455 79.132,156.575 79.895,157.167 79.895 C 157.737 79.895,157.807 79.084,158.014 70.211 L 158.185 62.842 158.463 65.053 C 158.616 66.268,158.888 68.542,159.068 70.105 C 159.248 71.668,159.489 73.611,159.603 74.421 C 159.718 75.232,159.899 76.579,160.005 77.414 C 160.249 79.327,160.523 79.789,161.414 79.789 C 162.603 79.789,162.958 78.461,163.688 71.263 C 164.364 64.602,164.580 63.065,164.622 64.632 C 164.829 72.445,165.214 79.101,165.484 79.526 C 166.645 81.353,166.881 78.748,166.633 66.833 L 166.477 59.350 165.081 59.412 L 163.684 59.474 163.541 60.526 C 162.693 66.747,162.563 67.873,162.080 73.158 C 161.795 76.276,161.632 76.833,161.312 75.768 C 161.099 75.059,160.951 74.018,160.314 68.737 C 160.132 67.232,159.841 64.911,159.666 63.579 C 159.492 62.247,159.311 60.842,159.264 60.455 C 159.113 59.219,158.022 58.768,156.713 59.402 M172.219 59.509 C 170.381 60.310,170.234 61.077,170.245 69.789 C 170.256 78.323,170.379 78.949,172.179 79.702 C 173.913 80.426,175.812 79.838,176.656 78.316 C 177.134 77.452,177.199 62.826,176.731 61.394 C 176.104 59.478,174.158 58.665,172.219 59.509 M179.713 59.474 C 179.556 59.882,179.744 62.695,180.105 65.368 C 180.262 66.526,180.498 68.611,180.629 70.000 C 180.760 71.389,180.998 73.379,181.158 74.421 C 181.317 75.463,181.500 76.909,181.563 77.635 C 181.811 80.469,184.849 81.204,184.840 78.427 C 184.839 78.076,184.978 76.795,185.150 75.579 C 185.589 72.467,186.053 68.695,186.315 66.105 C 186.439 64.889,186.632 63.184,186.745 62.316 C 187.060 59.893,187.029 59.607,186.433 59.458 C 185.578 59.243,184.834 60.625,184.847 62.407 C 184.849 62.762,184.707 64.189,184.532 65.579 C 184.357 66.968,184.113 69.242,183.990 70.632 C 183.328 78.124,183.014 77.768,182.317 68.737 C 182.041 65.166,181.513 61.164,181.209 60.350 C 180.807 59.273,179.977 58.786,179.713 59.474 M189.800 59.567 C 189.455 59.948,189.437 60.600,189.536 69.093 C 189.649 78.779,189.726 79.642,190.481 79.751 C 191.312 79.871,191.413 79.086,191.523 71.684 C 191.685 60.806,191.277 57.936,189.800 59.567 M195.239 68.684 C 195.391 78.792,195.460 80.000,195.894 80.000 C 196.483 80.000,196.799 76.060,196.829 68.368 C 196.836 66.429,196.915 64.842,197.005 64.842 C 197.207 64.842,197.672 67.503,197.889 69.895 C 197.978 70.879,198.156 72.489,198.285 73.474 C 198.414 74.458,198.631 76.229,198.766 77.409 C 199.002 79.469,199.036 79.565,199.607 79.801 C 201.143 80.437,201.535 79.545,202.108 74.105 C 203.194 63.795,203.459 63.126,203.606 70.316 C 203.769 78.259,204.041 80.461,204.742 79.502 C 205.174 78.912,205.237 77.716,205.349 68.053 L 205.452 59.158 204.452 59.158 C 202.953 59.158,202.319 59.525,202.317 60.397 C 202.317 60.789,202.225 61.689,202.114 62.397 C 202.003 63.105,201.764 65.011,201.581 66.632 C 201.288 69.240,200.990 71.560,200.499 75.053 L 200.351 76.105 199.982 74.632 C 199.779 73.821,199.607 72.826,199.599 72.421 C 199.592 72.016,199.446 70.784,199.275 69.684 C 199.105 68.584,198.862 66.737,198.736 65.579 C 198.109 59.798,197.850 59.158,196.140 59.158 L 195.097 59.158 195.239 68.684 M209.328 59.421 C 209.102 59.770,208.989 77.013,209.202 78.632 C 209.401 80.137,210.089 80.540,210.578 79.436 C 210.978 78.535,210.955 60.794,210.553 59.842 C 210.256 59.137,209.647 58.928,209.328 59.421 M215.088 59.298 C 215.011 59.375,214.947 64.011,214.947 69.599 L 214.947 79.759 216.053 79.895 C 216.661 79.969,217.679 80.000,218.316 79.963 L 219.474 79.895 219.474 79.158 L 219.474 78.421 218.105 78.316 L 216.737 78.211 216.680 74.158 L 216.622 70.105 217.443 70.105 C 219.073 70.105,219.579 69.903,219.579 69.249 C 219.579 68.501,219.413 68.404,217.880 68.265 L 216.632 68.152 216.632 64.602 L 216.632 61.053 217.698 61.053 C 219.353 61.053,220.157 60.242,219.326 59.411 C 219.057 59.142,215.343 59.043,215.088 59.298 M223.263 59.480 C 222.158 60.339,222.736 80.000,223.867 80.000 C 224.381 80.000,224.426 79.504,224.650 71.394 C 224.771 67.042,224.911 63.440,224.961 63.390 C 225.011 63.339,225.053 63.680,225.053 64.147 C 225.053 64.613,225.153 65.505,225.276 66.129 C 225.399 66.753,225.586 68.068,225.690 69.053 C 226.710 78.625,227.038 80.000,228.304 80.000 C 229.792 80.000,229.685 80.770,229.681 70.135 C 229.678 60.039,229.651 59.579,229.051 59.579 C 228.466 59.579,228.444 59.785,228.167 67.639 C 227.902 75.153,227.878 75.263,227.387 71.158 C 227.283 70.289,227.098 68.916,226.975 68.105 C 226.609 65.686,226.123 62.082,225.990 60.793 C 225.847 59.409,225.885 59.451,224.632 59.281 C 223.940 59.187,223.570 59.241,223.263 59.480 M233.105 59.472 C 231.813 60.034,232.523 61.053,234.206 61.053 L 234.919 61.053 234.986 70.200 C 235.055 79.727,235.081 79.976,235.948 79.701 C 236.501 79.525,236.603 78.203,236.764 69.158 C 236.898 61.651,236.979 61.053,237.857 61.053 C 238.781 61.053,239.133 59.524,238.263 59.291 C 237.341 59.043,233.805 59.168,233.105 59.472 M243.856 59.416 C 243.488 59.535,242.919 59.910,242.593 60.251 L 242.000 60.870 242.000 69.540 C 242.000 79.194,241.948 78.840,243.465 79.553 C 245.135 80.338,247.342 79.900,247.975 78.657 C 248.629 77.374,248.927 65.794,248.398 62.236 C 248.023 59.713,246.287 58.635,243.856 59.416 M174.405 61.035 C 175.044 61.741,175.238 64.937,175.060 71.842 L 174.899 78.105 173.684 78.105 L 172.469 78.105 172.314 72.302 C 172.039 62.071,172.602 59.042,174.405 61.035 M246.090 61.186 C 246.514 61.726,246.526 61.964,246.526 69.923 L 246.526 78.105 245.292 78.105 L 244.057 78.105 243.923 77.129 C 243.690 75.427,243.772 63.474,244.025 62.274 C 244.399 60.498,245.212 60.070,246.090 61.186 M157.474 109.158 L 157.474 123.368 125.895 123.368 L 94.316 123.368 94.316 109.158 L 94.316 94.947 125.895 94.947 L 157.474 94.947 157.474 109.158 M302.526 109.158 L 302.526 123.368 261.789 123.368 L 221.053 123.368 221.053 109.158 L 221.053 94.947 261.789 94.947 L 302.526 94.947 302.526 109.158 M175.778 99.109 C 177.490 99.950,177.474 99.853,177.474 109.158 C 177.474 117.388,177.472 117.413,176.996 118.127 C 175.610 120.201,172.120 120.008,171.071 117.799 C 170.762 117.147,170.729 116.144,170.782 108.884 L 170.842 100.704 171.417 99.949 C 172.436 98.615,174.114 98.292,175.778 99.109 M99.830 98.891 C 98.537 99.007,98.532 100.272,99.824 100.380 C 100.944 100.473,100.928 100.346,101.048 109.895 C 101.159 118.739,101.238 119.585,101.955 119.576 C 102.827 119.565,102.827 119.564,102.958 110.379 C 103.092 101.032,103.160 100.421,104.058 100.421 C 105.027 100.421,105.478 99.252,104.579 99.070 C 103.819 98.916,100.818 98.803,99.830 98.891 M108.951 98.911 C 107.947 99.142,107.835 101.162,108.139 113.650 L 108.278 119.368 110.350 119.368 C 113.577 119.368,114.640 118.058,111.509 117.939 L 109.895 117.877 109.895 113.804 L 109.895 109.732 111.365 109.649 C 114.299 109.483,113.736 108.018,110.632 107.741 L 110.000 107.684 109.942 104.053 L 109.885 100.421 111.465 100.421 C 113.114 100.421,113.817 99.838,113.070 99.091 C 112.792 98.813,109.920 98.688,108.951 98.911 M118.891 99.000 C 118.436 99.344,117.955 101.653,117.277 106.737 C 116.856 109.891,116.379 113.197,116.087 114.978 C 115.625 117.804,115.679 119.305,116.250 119.486 C 116.829 119.670,117.474 118.948,117.474 118.115 C 117.474 117.799,117.615 117.076,117.787 116.507 C 117.960 115.939,118.102 115.247,118.103 114.971 C 118.106 114.233,118.690 113.909,120.027 113.901 C 121.510 113.893,121.580 113.983,121.884 116.298 C 122.173 118.502,122.515 119.277,123.260 119.419 C 124.148 119.589,124.195 118.376,123.468 114.053 C 122.798 110.072,122.548 108.452,122.322 106.632 C 122.193 105.589,121.949 104.024,121.780 103.153 C 121.612 102.282,121.474 101.313,121.474 100.999 C 121.474 99.171,120.085 98.096,118.891 99.000 M126.023 98.920 C 124.478 99.257,124.888 100.421,126.552 100.421 L 127.579 100.421 127.605 106.053 C 127.653 116.327,127.816 119.252,128.344 119.327 C 129.068 119.431,129.267 117.567,129.406 109.368 C 129.544 101.219,129.629 100.594,130.632 100.422 C 131.613 100.254,131.682 99.063,130.722 98.871 C 129.900 98.706,126.854 98.738,126.023 98.920 M134.529 108.550 C 134.532 118.880,134.555 119.282,135.151 119.471 C 136.116 119.778,136.158 119.602,136.259 114.881 C 136.371 109.593,136.358 109.642,137.656 109.726 C 139.094 109.820,139.209 110.180,139.389 115.158 C 139.562 119.961,139.465 119.368,140.080 119.368 C 141.427 119.368,141.720 110.432,140.410 109.310 C 139.884 108.860,139.890 108.796,140.566 107.733 C 141.381 106.452,141.540 102.625,140.855 100.808 C 140.218 99.120,139.810 98.911,136.910 98.783 L 134.526 98.678 134.529 108.550 M147.017 98.877 C 145.122 99.146,144.970 100.101,145.084 111.002 L 145.158 118.097 145.831 118.770 C 147.335 120.274,150.632 119.633,151.185 117.729 C 151.591 116.334,151.603 101.523,151.200 100.386 C 150.754 99.128,149.199 98.567,147.017 98.877 M227.368 98.914 L 226.842 99.072 226.787 109.220 L 226.733 119.368 228.878 119.368 C 231.313 119.368,232.229 119.120,232.690 118.336 C 233.776 116.487,233.753 100.901,232.662 99.825 C 231.926 99.098,228.642 98.533,227.368 98.914 M237.650 98.896 C 237.052 99.024,237.019 99.470,237.033 107.263 C 237.052 117.414,237.260 119.522,238.226 119.336 C 238.914 119.203,239.006 118.099,239.029 109.684 C 239.059 99.179,238.986 98.608,237.650 98.896 M244.769 99.044 C 243.102 99.638,242.977 100.163,242.812 107.263 C 242.552 118.467,243.121 119.961,247.464 119.460 C 249.603 119.213,249.474 119.559,249.474 114.070 L 249.474 109.263 248.023 109.263 C 246.893 109.263,246.543 109.337,246.444 109.596 C 246.181 110.280,246.320 110.749,246.846 110.949 C 247.611 111.240,247.789 111.938,247.789 114.645 C 247.789 117.830,247.251 118.507,245.551 117.457 L 244.842 117.018 244.800 113.404 C 244.722 106.635,244.874 101.620,245.177 101.026 C 246.047 99.315,247.789 100.597,247.789 102.949 C 247.789 104.140,248.276 104.626,249.053 104.211 C 249.742 103.841,249.661 101.216,248.927 100.135 C 248.037 98.825,246.508 98.424,244.769 99.044 M253.725 98.958 L 253.240 99.153 253.307 108.682 C 253.377 118.650,253.443 119.368,254.286 119.368 C 254.909 119.368,254.941 118.957,254.958 110.632 C 254.973 103.374,255.126 101.670,255.472 104.893 C 255.669 106.718,256.274 110.986,257.151 116.730 C 257.537 119.262,257.763 119.554,259.224 119.418 L 260.237 119.324 260.155 109.609 C 260.071 99.608,260.030 99.059,259.349 98.881 C 258.669 98.703,258.633 99.049,258.569 106.474 C 258.512 112.941,258.331 115.113,258.025 113.000 C 257.971 112.624,257.783 111.368,257.608 110.211 C 256.957 105.905,256.842 105.029,256.841 104.365 C 256.840 103.414,256.113 99.762,255.812 99.201 C 255.544 98.698,254.636 98.593,253.725 98.958 M270.105 98.916 C 269.360 99.134,269.249 101.084,269.409 111.211 L 269.537 119.368 271.663 119.368 C 276.025 119.367,276.047 119.310,275.959 108.507 C 275.887 99.702,275.907 99.812,274.296 99.254 C 273.343 98.924,270.784 98.718,270.105 98.916 M282.203 98.937 C 281.722 99.132,280.953 102.665,280.208 108.105 C 279.975 109.800,279.693 111.592,279.047 115.474 C 278.601 118.156,278.673 119.450,279.275 119.536 C 280.178 119.665,281.053 117.553,281.053 115.241 C 281.053 113.977,281.163 113.895,282.862 113.895 C 284.146 113.895,284.709 114.460,284.961 116.000 C 285.445 118.956,285.713 119.583,286.489 119.576 C 287.385 119.568,287.443 119.326,287.068 117.129 C 286.873 115.987,286.572 114.153,286.399 113.053 C 286.226 111.953,285.994 110.526,285.884 109.882 C 285.774 109.238,285.685 108.480,285.687 108.198 C 285.688 107.915,285.553 107.021,285.386 106.211 C 285.077 104.710,284.544 101.671,284.305 100.050 C 284.129 98.855,283.382 98.460,282.203 98.937 M290.684 98.880 L 290.105 98.975 290.105 109.172 L 290.105 119.368 292.326 119.368 C 296.385 119.368,296.464 119.224,296.592 111.647 C 296.715 104.295,296.519 100.598,295.972 99.968 C 295.277 99.167,292.459 98.587,290.684 98.880 M167.128 99.427 C 168.398 100.044,168.742 105.926,167.666 108.615 C 167.240 109.681,166.503 110.105,165.079 110.105 L 164.032 110.105 163.963 114.284 C 163.890 118.756,163.796 119.158,162.824 119.158 C 162.433 119.158,162.289 118.995,162.121 118.368 C 161.877 117.457,161.546 99.823,161.762 99.260 C 161.931 98.818,166.146 98.950,167.128 99.427 M185.474 99.156 C 187.867 99.431,187.789 99.275,187.789 103.811 L 187.789 107.542 187.139 108.089 L 186.488 108.637 187.139 109.245 L 187.789 109.853 187.789 114.396 L 187.789 118.939 187.264 119.071 C 186.009 119.386,185.900 118.944,185.897 113.526 L 185.895 109.684 184.464 109.684 L 183.034 109.684 183.122 114.234 C 183.221 119.319,183.268 119.149,181.737 119.155 L 180.842 119.158 180.842 109.193 C 180.842 103.712,180.905 99.165,180.982 99.088 C 181.186 98.885,183.403 98.918,185.474 99.156 M212.880 99.288 C 212.959 99.336,213.082 99.918,213.154 100.582 C 213.367 102.548,213.705 104.834,214.646 110.684 C 216.037 119.322,216.030 119.158,214.978 119.158 C 214.220 119.158,213.796 118.566,213.620 117.263 C 213.151 113.779,213.091 113.684,211.362 113.684 C 209.854 113.684,209.804 113.752,209.484 116.211 C 209.191 118.468,208.867 119.158,208.100 119.158 C 207.489 119.158,207.377 117.391,207.803 114.478 C 208.230 111.554,208.633 108.830,208.941 106.789 C 209.253 104.718,209.564 102.461,209.804 100.526 C 209.989 99.030,210.168 98.881,211.568 99.055 C 212.211 99.135,212.801 99.239,212.880 99.288 M264.140 99.088 C 263.965 99.263,263.953 118.579,264.128 119.035 C 264.505 120.018,265.200 119.392,265.336 117.947 C 265.512 116.091,265.513 101.915,265.338 100.241 C 265.206 98.975,264.721 98.507,264.140 99.088 M201.370 99.737 C 201.456 100.055,201.569 104.224,201.621 109.000 L 201.717 117.684 202.845 117.684 C 204.189 117.684,205.053 117.972,205.053 118.421 C 205.053 118.948,204.117 119.158,201.768 119.158 L 199.563 119.158 199.624 109.506 C 199.688 99.173,199.690 99.158,200.738 99.158 C 201.079 99.158,201.258 99.322,201.370 99.737 M148.877 100.359 C 149.510 100.543,149.684 102.728,149.684 110.514 L 149.684 117.942 148.895 117.806 C 148.461 117.731,147.855 117.620,147.549 117.560 L 146.993 117.450 146.837 113.094 C 146.489 103.373,146.888 99.578,148.200 100.123 C 148.380 100.197,148.684 100.304,148.877 100.359 M173.151 100.432 C 172.635 101.267,172.634 116.836,173.150 117.672 C 173.388 118.057,174.699 117.937,174.929 117.509 C 175.924 115.648,175.741 101.441,174.710 100.579 C 174.221 100.170,173.363 100.089,173.151 100.432 M138.513 100.789 C 139.855 101.877,139.609 107.047,138.190 107.587 C 136.663 108.167,136.316 107.499,136.316 103.979 C 136.316 100.608,137.023 99.582,138.513 100.789 M230.920 100.922 C 231.425 101.380,231.685 107.215,231.462 113.081 L 231.310 117.054 230.630 117.474 C 230.256 117.706,229.606 117.895,229.186 117.895 L 228.421 117.895 228.421 109.131 L 228.421 100.367 229.476 100.469 C 230.056 100.525,230.706 100.729,230.920 100.922 M273.382 100.905 C 274.119 101.540,274.413 105.252,274.224 111.526 C 274.047 117.363,273.850 117.892,271.842 117.894 L 271.158 117.895 271.158 109.158 L 271.158 100.421 271.988 100.421 C 272.551 100.421,273.000 100.577,273.382 100.905 M294.368 100.776 C 294.455 100.826,294.526 104.597,294.526 109.156 C 294.526 118.486,294.720 117.522,292.789 117.785 L 291.789 117.921 291.789 109.156 L 291.789 100.391 293.000 100.537 C 293.666 100.618,294.282 100.725,294.368 100.776 M164.103 100.876 C 164.041 101.039,164.016 102.827,164.047 104.850 L 164.105 108.526 164.818 108.492 C 165.210 108.473,165.603 108.342,165.690 108.200 C 166.141 107.472,166.152 101.809,165.704 101.085 C 165.462 100.693,164.235 100.533,164.103 100.876 M183.048 104.048 C 183.212 107.660,183.485 108.472,184.409 108.088 C 184.589 108.014,184.899 107.906,185.096 107.849 C 185.896 107.618,186.025 105.994,185.556 102.067 C 185.428 100.995,184.913 100.632,183.521 100.632 L 182.894 100.632 183.048 104.048 M283.240 102.053 C 283.304 102.371,283.502 103.958,283.680 105.579 C 283.858 107.200,284.104 109.212,284.226 110.051 C 284.501 111.943,284.465 112.000,282.957 112.000 C 281.404 112.000,281.447 112.168,281.930 108.000 C 282.655 101.746,282.929 100.500,283.240 102.053 M211.281 102.287 C 211.195 102.426,211.042 103.413,210.941 104.480 C 210.839 105.548,210.603 107.596,210.416 109.031 C 210.039 111.921,210.060 111.991,211.299 111.997 C 212.543 112.003,212.632 111.886,212.632 110.241 C 212.632 109.414,212.489 107.994,212.316 107.087 C 212.142 106.179,211.999 105.090,211.997 104.666 C 211.993 103.644,211.485 101.957,211.281 102.287 M120.173 103.526 C 120.291 104.076,120.498 105.521,120.632 106.737 C 120.767 107.953,120.955 109.516,121.052 110.211 C 121.260 111.709,121.038 112.002,119.697 111.997 C 118.634 111.993,118.207 111.745,118.399 111.244 C 118.479 111.037,118.639 109.914,118.756 108.749 C 118.873 107.585,119.051 105.806,119.151 104.797 C 119.408 102.224,119.791 101.747,120.173 103.526 " stroke="none" fill="#040404" fill-rule="evenodd"></path><path id="path2" d="M253.994 69.579 C 253.994 77.453,254.021 80.643,254.053 76.669 C 254.085 72.695,254.085 66.252,254.053 62.353 C 254.020 58.454,253.994 61.705,253.994 69.579 M175.010 68.842 C 175.010 69.479,175.050 69.739,175.098 69.421 C 175.146 69.103,175.146 68.582,175.098 68.263 C 175.050 67.945,175.010 68.205,175.010 68.842 M205.316 68.737 C 205.319 69.200,205.362 69.365,205.412 69.103 C 205.462 68.841,205.460 68.462,205.408 68.261 C 205.355 68.059,205.314 68.274,205.316 68.737 M201.543 104.316 C 201.544 105.126,201.582 105.432,201.627 104.995 C 201.673 104.559,201.672 103.895,201.626 103.522 C 201.579 103.148,201.542 103.505,201.543 104.316 M263.865 105.263 C 263.865 106.363,263.901 106.813,263.944 106.263 C 263.988 105.713,263.988 104.813,263.944 104.263 C 263.901 103.713,263.865 104.163,263.865 105.263 M265.551 109.158 C 265.551 110.316,265.586 110.763,265.629 110.151 C 265.672 109.539,265.671 108.592,265.628 108.046 C 265.585 107.499,265.550 108.000,265.551 109.158 M231.438 109.158 C 231.438 109.968,231.476 110.274,231.522 109.837 C 231.568 109.401,231.567 108.737,231.520 108.364 C 231.474 107.990,231.437 108.347,231.438 109.158 M274.165 109.158 C 274.167 109.737,274.208 109.949,274.256 109.629 C 274.305 109.309,274.303 108.835,274.253 108.576 C 274.203 108.317,274.164 108.579,274.165 109.158 M263.865 113.053 C 263.865 114.153,263.901 114.603,263.944 114.053 C 263.988 113.503,263.988 112.603,263.944 112.053 C 263.901 111.503,263.865 111.953,263.865 113.053 M136.271 116.316 C 136.272 116.895,136.313 117.107,136.362 116.787 C 136.410 116.467,136.409 115.993,136.359 115.734 C 136.309 115.475,136.269 115.737,136.271 116.316 M163.843 116.316 C 163.845 116.779,163.888 116.944,163.938 116.682 C 163.989 116.420,163.987 116.041,163.934 115.840 C 163.881 115.638,163.840 115.853,163.843 116.316 " stroke="none" fill="#7c7c7c" fill-rule="evenodd"></path><path id="path3" d="M0.315 68.947 C 0.315 106.926,0.339 122.432,0.368 103.404 C 0.398 84.376,0.398 53.302,0.368 34.351 C 0.339 15.400,0.315 30.968,0.315 68.947 M156.049 61.053 C 156.049 61.458,156.092 61.624,156.145 61.421 C 156.198 61.218,156.198 60.887,156.145 60.684 C 156.092 60.482,156.049 60.647,156.049 61.053 M216.718 64.632 C 216.718 66.658,216.750 67.487,216.788 66.474 C 216.827 65.461,216.827 63.803,216.788 62.789 C 216.750 61.776,216.718 62.605,216.718 64.632 M191.417 62.526 C 191.417 62.932,191.461 63.097,191.514 62.895 C 191.566 62.692,191.566 62.361,191.514 62.158 C 191.461 61.955,191.417 62.121,191.417 62.526 M158.122 63.842 C 158.113 64.392,158.181 64.842,158.274 64.842 C 158.366 64.842,158.407 64.487,158.364 64.053 C 158.242 62.830,158.140 62.741,158.122 63.842 M170.176 65.263 C 170.176 66.132,170.213 66.487,170.259 66.053 C 170.304 65.618,170.304 64.908,170.259 64.474 C 170.213 64.039,170.176 64.395,170.176 65.263 M166.594 65.474 C 166.594 66.226,166.632 66.534,166.679 66.158 C 166.725 65.782,166.725 65.166,166.679 64.789 C 166.632 64.413,166.594 64.721,166.594 65.474 M205.339 66.105 C 205.339 67.205,205.375 67.655,205.418 67.105 C 205.461 66.555,205.461 65.655,205.418 65.105 C 205.375 64.555,205.339 65.005,205.339 66.105 M164.685 68.105 C 164.687 68.568,164.730 68.733,164.780 68.471 C 164.831 68.209,164.829 67.830,164.776 67.629 C 164.724 67.428,164.682 67.642,164.685 68.105 M228.060 68.316 C 228.062 68.895,228.103 69.107,228.151 68.787 C 228.199 68.467,228.198 67.993,228.148 67.734 C 228.098 67.475,228.059 67.737,228.060 68.316 M224.695 68.842 C 224.695 69.479,224.734 69.739,224.782 69.421 C 224.831 69.103,224.831 68.582,224.782 68.263 C 224.734 67.945,224.695 68.205,224.695 68.842 M175.010 70.947 C 175.010 71.584,175.050 71.845,175.098 71.526 C 175.146 71.208,175.146 70.687,175.098 70.368 C 175.050 70.050,175.010 70.311,175.010 70.947 M216.730 74.105 L 216.737 78.211 217.684 78.228 L 218.632 78.245 217.741 78.164 L 216.851 78.083 216.787 74.041 L 216.722 70.000 216.730 74.105 M172.271 71.474 C 172.272 72.053,172.313 72.264,172.362 71.944 C 172.410 71.624,172.409 71.151,172.359 70.892 C 172.309 70.633,172.269 70.895,172.271 71.474 M156.053 71.684 C 156.055 72.147,156.099 72.312,156.149 72.050 C 156.199 71.788,156.197 71.409,156.145 71.208 C 156.092 71.007,156.051 71.221,156.053 71.684 M157.955 72.737 C 157.957 73.316,157.997 73.528,158.046 73.208 C 158.094 72.888,158.093 72.414,158.043 72.155 C 157.993 71.896,157.953 72.158,157.955 72.737 M236.689 72.632 C 236.689 73.153,236.730 73.366,236.780 73.105 C 236.830 72.845,236.830 72.418,236.780 72.158 C 236.730 71.897,236.689 72.111,236.689 72.632 M170.176 73.895 C 170.176 74.763,170.213 75.118,170.259 74.684 C 170.304 74.250,170.304 73.539,170.259 73.105 C 170.213 72.671,170.176 73.026,170.176 73.895 M196.702 74.526 C 196.702 75.395,196.740 75.750,196.785 75.316 C 196.830 74.882,196.830 74.171,196.785 73.737 C 196.740 73.303,196.702 73.658,196.702 74.526 M195.223 75.263 C 195.224 75.958,195.264 76.217,195.310 75.838 C 195.357 75.460,195.356 74.892,195.308 74.575 C 195.260 74.259,195.222 74.568,195.223 75.263 M222.790 74.842 C 222.792 75.305,222.835 75.470,222.886 75.208 C 222.936 74.946,222.934 74.567,222.881 74.366 C 222.829 74.165,222.788 74.379,222.790 74.842 M243.850 75.895 C 243.851 76.474,243.892 76.686,243.941 76.366 C 243.989 76.046,243.988 75.572,243.938 75.313 C 243.888 75.054,243.848 75.316,243.850 75.895 M191.422 76.737 C 191.424 77.200,191.467 77.365,191.517 77.103 C 191.568 76.841,191.566 76.462,191.513 76.261 C 191.460 76.059,191.419 76.274,191.422 76.737 M161.779 99.214 C 161.723 99.360,161.704 102.036,161.737 105.161 L 161.797 110.842 161.846 105.009 L 161.895 99.176 163.421 99.104 L 164.947 99.031 163.414 98.989 C 162.340 98.960,161.851 99.027,161.779 99.214 M181.842 99.102 C 182.334 99.146,183.139 99.146,183.632 99.102 C 184.124 99.057,183.721 99.021,182.737 99.021 C 181.753 99.021,181.350 99.057,181.842 99.102 M210.579 99.092 C 210.782 99.145,211.113 99.145,211.316 99.092 C 211.518 99.040,211.353 98.996,210.947 98.996 C 210.542 98.996,210.376 99.040,210.579 99.092 M269.316 101.579 C 269.319 102.042,269.362 102.207,269.412 101.945 C 269.462 101.683,269.460 101.304,269.408 101.103 C 269.355 100.902,269.314 101.116,269.316 101.579 M201.523 102.316 C 201.523 102.721,201.566 102.887,201.619 102.684 C 201.672 102.482,201.672 102.150,201.619 101.947 C 201.566 101.745,201.523 101.911,201.523 102.316 M236.916 103.368 C 236.916 104.353,236.952 104.755,236.996 104.263 C 237.041 103.771,237.041 102.966,236.996 102.474 C 236.952 101.982,236.916 102.384,236.916 103.368 M239.000 102.421 C 239.003 102.884,239.046 103.049,239.096 102.787 C 239.147 102.525,239.145 102.146,239.092 101.945 C 239.039 101.744,238.998 101.958,239.000 102.421 M136.287 104.105 C 136.288 105.263,136.323 105.710,136.366 105.098 C 136.409 104.486,136.408 103.539,136.365 102.993 C 136.322 102.447,136.287 102.947,136.287 104.105 M289.983 106.105 C 289.983 108.363,290.014 109.287,290.052 108.158 C 290.090 107.029,290.090 105.182,290.052 104.053 C 290.014 102.924,289.983 103.847,289.983 106.105 M102.996 103.368 C 102.996 103.774,103.040 103.939,103.092 103.737 C 103.145 103.534,103.145 103.203,103.092 103.000 C 103.040 102.797,102.996 102.963,102.996 103.368 M168.264 104.526 C 168.266 104.989,168.309 105.154,168.359 104.892 C 168.410 104.630,168.408 104.251,168.355 104.050 C 168.302 103.849,168.261 104.063,168.264 104.526 M183.000 104.947 C 183.003 105.411,183.046 105.575,183.096 105.313 C 183.147 105.051,183.145 104.673,183.092 104.471 C 183.039 104.270,182.998 104.484,183.000 104.947 M172.697 106.000 C 172.698 106.695,172.737 106.954,172.784 106.575 C 172.831 106.197,172.830 105.628,172.782 105.312 C 172.734 104.996,172.696 105.305,172.697 106.000 M231.432 106.737 C 231.432 107.374,231.471 107.634,231.519 107.316 C 231.567 106.997,231.567 106.476,231.519 106.158 C 231.471 105.839,231.432 106.100,231.432 106.737 M274.173 106.947 C 274.173 107.700,274.211 108.008,274.258 107.632 C 274.304 107.255,274.304 106.639,274.258 106.263 C 274.211 105.887,274.173 106.195,274.173 106.947 M236.919 108.737 C 236.920 109.895,236.955 110.342,236.998 109.730 C 237.040 109.118,237.040 108.171,236.997 107.625 C 236.953 107.078,236.918 107.579,236.919 108.737 M263.866 109.158 C 263.867 110.316,263.902 110.763,263.945 110.151 C 263.988 109.539,263.987 108.592,263.944 108.046 C 263.901 107.499,263.866 108.000,263.866 109.158 M244.697 108.737 C 244.698 109.432,244.737 109.690,244.784 109.312 C 244.831 108.934,244.830 108.365,244.782 108.049 C 244.734 107.733,244.696 108.042,244.697 108.737 M249.560 112.737 C 249.560 114.705,249.591 115.539,249.630 114.589 C 249.669 113.640,249.669 112.029,249.631 111.010 C 249.592 109.991,249.560 110.768,249.560 112.737 M269.328 111.053 C 269.330 111.747,269.369 112.006,269.416 111.628 C 269.463 111.249,269.462 110.681,269.414 110.365 C 269.366 110.048,269.327 110.358,269.328 111.053 M274.173 111.368 C 274.173 112.121,274.211 112.429,274.258 112.053 C 274.304 111.676,274.304 111.061,274.258 110.684 C 274.211 110.308,274.173 110.616,274.173 111.368 M231.432 111.579 C 231.432 112.216,231.471 112.476,231.519 112.158 C 231.567 111.839,231.567 111.318,231.519 111.000 C 231.471 110.682,231.432 110.942,231.432 111.579 M146.800 112.211 C 146.800 112.847,146.839 113.108,146.888 112.789 C 146.936 112.471,146.936 111.950,146.888 111.632 C 146.839 111.313,146.800 111.574,146.800 112.211 M182.996 111.789 C 182.996 112.195,183.040 112.361,183.092 112.158 C 183.145 111.955,183.145 111.624,183.092 111.421 C 183.040 111.218,182.996 111.384,182.996 111.789 M136.286 113.474 C 136.286 114.574,136.322 115.024,136.365 114.474 C 136.409 113.924,136.409 113.024,136.365 112.474 C 136.322 111.924,136.286 112.374,136.286 113.474 M108.067 113.053 C 108.067 113.805,108.106 114.113,108.152 113.737 C 108.199 113.361,108.199 112.745,108.152 112.368 C 108.106 111.992,108.067 112.300,108.067 113.053 M172.699 113.263 C 172.699 114.016,172.737 114.324,172.784 113.947 C 172.831 113.571,172.831 112.955,172.784 112.579 C 172.737 112.203,172.699 112.511,172.699 113.263 M127.655 114.526 C 127.655 115.626,127.690 116.076,127.734 115.526 C 127.777 114.976,127.777 114.076,127.734 113.526 C 127.690 112.976,127.655 113.426,127.655 114.526 M129.316 113.789 C 129.319 114.253,129.362 114.417,129.412 114.155 C 129.462 113.894,129.460 113.515,129.408 113.313 C 129.355 113.112,129.314 113.326,129.316 113.789 M239.000 115.895 C 239.003 116.358,239.046 116.523,239.096 116.261 C 239.147 115.999,239.145 115.620,239.092 115.419 C 239.039 115.217,238.998 115.432,239.000 115.895 M110.371 117.835 C 110.691 117.884,111.165 117.882,111.424 117.832 C 111.683 117.782,111.421 117.743,110.842 117.744 C 110.263 117.746,110.051 117.787,110.371 117.835 M228.789 117.833 C 229.050 117.883,229.476 117.883,229.737 117.833 C 229.997 117.783,229.784 117.742,229.263 117.742 C 228.742 117.742,228.529 117.783,228.789 117.833 M271.529 117.833 C 271.791 117.883,272.170 117.882,272.371 117.829 C 272.572 117.776,272.358 117.735,271.895 117.737 C 271.432 117.740,271.267 117.783,271.529 117.833 " stroke="none" fill="#565656" fill-rule="evenodd"></path><path id="path4" d="M150.629 69.684 L 150.632 83.895 202.263 83.895 L 253.895 83.896 202.317 83.842 L 150.740 83.789 150.683 69.631 L 150.627 55.474 150.629 69.684 M166.594 61.895 C 166.594 62.647,166.632 62.955,166.679 62.579 C 166.725 62.203,166.725 61.587,166.679 61.211 C 166.632 60.834,166.594 61.142,166.594 61.895 M214.834 70.632 C 214.834 75.726,214.861 77.780,214.895 75.196 C 214.928 72.612,214.928 68.444,214.894 65.933 C 214.861 63.423,214.833 65.537,214.834 70.632 M208.936 69.684 C 208.936 73.332,208.965 74.824,209.000 73.000 C 209.035 71.176,209.035 68.192,209.000 66.368 C 208.965 64.545,208.936 66.037,208.936 69.684 M164.470 64.632 C 164.470 65.037,164.513 65.203,164.566 65.000 C 164.619 64.797,164.619 64.466,164.566 64.263 C 164.513 64.061,164.470 64.226,164.470 64.632 M241.775 69.579 C 241.775 72.474,241.805 73.687,241.841 72.275 C 241.878 70.864,241.878 68.495,241.842 67.012 C 241.805 65.529,241.776 66.684,241.775 69.579 M172.287 67.474 C 172.288 68.632,172.323 69.078,172.366 68.467 C 172.409 67.855,172.408 66.907,172.365 66.361 C 172.322 65.815,172.287 66.316,172.287 67.474 M175.013 66.632 C 175.014 67.326,175.053 67.585,175.100 67.207 C 175.147 66.828,175.146 66.260,175.098 65.944 C 175.050 65.627,175.011 65.937,175.013 66.632 M158.168 66.737 C 158.168 67.374,158.208 67.634,158.256 67.316 C 158.304 66.997,158.304 66.476,158.256 66.158 C 158.208 65.839,158.168 66.100,158.168 66.737 M248.706 69.579 C 248.706 70.621,248.741 71.074,248.785 70.585 C 248.830 70.097,248.830 69.244,248.787 68.691 C 248.743 68.137,248.707 68.537,248.706 69.579 M229.777 74.000 C 229.777 77.242,229.806 78.539,229.842 76.882 C 229.877 75.225,229.877 72.572,229.842 70.987 C 229.806 69.402,229.777 70.758,229.777 74.000 M205.323 70.421 C 205.325 71.000,205.366 71.212,205.414 70.892 C 205.463 70.572,205.461 70.098,205.411 69.839 C 205.361 69.580,205.322 69.842,205.323 70.421 M224.695 71.789 C 224.695 72.426,224.734 72.687,224.782 72.368 C 224.831 72.050,224.831 71.529,224.782 71.211 C 224.734 70.892,224.695 71.153,224.695 71.789 M243.850 72.947 C 243.851 73.526,243.892 73.738,243.941 73.418 C 243.989 73.098,243.988 72.624,243.938 72.366 C 243.888 72.107,243.848 72.368,243.850 72.947 M234.815 74.316 C 234.815 75.532,234.850 76.029,234.892 75.421 C 234.935 74.813,234.935 73.818,234.892 73.211 C 234.850 72.603,234.815 73.100,234.815 74.316 M227.784 73.641 L 227.886 74.632 227.957 73.814 C 227.997 73.365,227.951 72.919,227.856 72.824 C 227.761 72.729,227.728 73.097,227.784 73.641 M156.057 74.105 C 156.057 74.626,156.098 74.839,156.149 74.579 C 156.199 74.318,156.199 73.892,156.149 73.632 C 156.098 73.371,156.057 73.584,156.057 74.105 M236.689 74.947 C 236.689 75.468,236.730 75.682,236.780 75.421 C 236.830 75.161,236.830 74.734,236.780 74.474 C 236.730 74.213,236.689 74.426,236.689 74.947 M157.955 75.474 C 157.957 76.053,157.997 76.264,158.046 75.944 C 158.094 75.624,158.093 75.151,158.043 74.892 C 157.993 74.633,157.953 74.895,157.955 75.474 M174.797 76.526 C 174.799 77.105,174.840 77.317,174.888 76.997 C 174.936 76.677,174.935 76.203,174.885 75.944 C 174.835 75.686,174.795 75.947,174.797 76.526 M173.004 78.047 C 173.382 78.094,173.951 78.093,174.267 78.045 C 174.583 77.997,174.274 77.959,173.579 77.960 C 172.884 77.961,172.625 78.000,173.004 78.047 M244.579 78.047 C 244.955 78.094,245.571 78.094,245.947 78.047 C 246.324 78.000,246.016 77.962,245.263 77.962 C 244.511 77.962,244.203 78.000,244.579 78.047 M221.152 109.158 C 221.152 117.032,221.178 120.222,221.210 116.248 C 221.243 112.274,221.242 105.831,221.210 101.932 C 221.178 98.033,221.152 101.284,221.152 109.158 M110.474 98.675 C 110.734 98.725,111.161 98.725,111.421 98.675 C 111.682 98.625,111.468 98.584,110.947 98.584 C 110.426 98.584,110.213 98.625,110.474 98.675 M128.263 98.677 C 128.582 98.725,129.103 98.725,129.421 98.677 C 129.739 98.629,129.479 98.589,128.842 98.589 C 128.205 98.589,127.945 98.629,128.263 98.677 M135.321 98.681 C 135.817 98.725,136.574 98.725,137.006 98.679 C 137.437 98.634,137.032 98.598,136.105 98.598 C 135.179 98.599,134.826 98.636,135.321 98.681 M180.939 109.158 C 180.939 114.716,180.967 116.959,181.000 114.143 C 181.033 111.327,181.033 106.780,181.000 104.038 C 180.967 101.296,180.939 103.600,180.939 109.158 M289.944 100.842 C 289.944 101.247,289.987 101.413,290.040 101.211 C 290.093 101.008,290.093 100.676,290.040 100.474 C 289.987 100.271,289.944 100.437,289.944 100.842 M110.477 100.574 C 110.856 100.620,111.424 100.620,111.741 100.571 C 112.057 100.523,111.747 100.485,111.053 100.486 C 110.358 100.487,110.099 100.527,110.477 100.574 M126.476 100.570 C 126.738 100.620,127.117 100.618,127.318 100.566 C 127.520 100.513,127.305 100.472,126.842 100.474 C 126.379 100.476,126.214 100.520,126.476 100.570 M228.517 100.685 C 228.462 100.829,228.442 104.737,228.474 109.369 L 228.531 117.789 228.581 109.223 L 228.632 100.657 229.421 100.574 L 230.211 100.492 229.414 100.456 C 228.942 100.435,228.577 100.528,228.517 100.685 M271.254 100.685 C 271.198 100.829,271.179 104.737,271.211 109.369 L 271.268 117.789 271.318 109.224 L 271.368 100.658 272.053 100.573 L 272.737 100.488 272.046 100.455 C 271.659 100.436,271.311 100.537,271.254 100.685 M263.850 102.421 C 263.851 103.000,263.892 103.212,263.941 102.892 C 263.989 102.572,263.988 102.098,263.938 101.839 C 263.888 101.580,263.848 101.842,263.850 102.421 M253.141 105.895 C 253.141 108.153,253.172 109.076,253.210 107.947 C 253.247 106.818,253.247 104.971,253.210 103.842 C 253.172 102.713,253.141 103.637,253.141 105.895 M163.870 104.737 C 163.870 106.126,163.904 106.667,163.946 105.939 C 163.987 105.211,163.986 104.074,163.945 103.413 C 163.903 102.752,163.869 103.347,163.870 104.737 M265.553 104.842 C 265.553 106.174,265.587 106.718,265.629 106.053 C 265.671 105.387,265.671 104.297,265.629 103.632 C 265.587 102.966,265.553 103.511,265.553 104.842 M172.685 103.684 C 172.687 104.147,172.730 104.312,172.780 104.050 C 172.831 103.788,172.829 103.409,172.776 103.208 C 172.724 103.007,172.682 103.221,172.685 103.684 M255.030 106.105 C 255.030 107.668,255.063 108.308,255.103 107.526 C 255.144 106.745,255.144 105.466,255.103 104.684 C 255.063 103.903,255.030 104.542,255.030 106.105 M146.790 104.316 C 146.792 104.779,146.835 104.944,146.886 104.682 C 146.936 104.420,146.934 104.041,146.881 103.840 C 146.829 103.638,146.788 103.853,146.790 104.316 M149.531 104.421 C 149.531 104.942,149.572 105.155,149.622 104.895 C 149.672 104.634,149.672 104.208,149.622 103.947 C 149.572 103.687,149.531 103.900,149.531 104.421 M144.934 109.158 C 144.934 112.168,144.964 113.371,145.000 111.830 C 145.036 110.289,145.035 107.825,144.999 106.356 C 144.963 104.887,144.934 106.147,144.934 109.158 M103.038 109.368 C 103.038 112.032,103.068 113.092,103.105 111.725 C 103.141 110.358,103.141 108.179,103.104 106.883 C 103.068 105.587,103.037 106.705,103.038 109.368 M201.574 111.737 L 201.579 117.789 202.737 117.810 L 203.895 117.830 202.793 117.746 L 201.691 117.662 201.630 111.673 L 201.569 105.684 201.574 111.737 M296.719 109.474 C 296.719 111.616,296.750 112.492,296.788 111.421 C 296.827 110.350,296.827 108.597,296.788 107.526 C 296.750 106.455,296.719 107.332,296.719 109.474 M146.810 108.842 C 146.810 109.826,146.847 110.229,146.891 109.737 C 146.935 109.245,146.935 108.439,146.891 107.947 C 146.847 107.455,146.810 107.858,146.810 108.842 M185.982 113.368 C 185.982 115.453,186.013 116.277,186.052 115.200 C 186.090 114.123,186.090 112.418,186.051 111.410 C 186.013 110.403,185.982 111.284,185.982 113.368 M163.872 112.842 C 163.872 114.405,163.905 115.045,163.946 114.263 C 163.986 113.482,163.986 112.203,163.946 111.421 C 163.905 110.639,163.872 111.279,163.872 112.842 M212.680 110.737 C 212.680 111.142,212.724 111.308,212.777 111.105 C 212.830 110.903,212.830 110.571,212.777 110.368 C 212.724 110.166,212.680 110.332,212.680 110.737 M265.553 113.474 C 265.553 114.805,265.587 115.350,265.629 114.684 C 265.671 114.018,265.671 112.929,265.629 112.263 C 265.587 111.597,265.553 112.142,265.553 113.474 M289.962 112.421 C 289.962 113.174,290.000 113.482,290.047 113.105 C 290.094 112.729,290.094 112.113,290.047 111.737 C 290.000 111.361,289.962 111.668,289.962 112.421 M236.902 112.316 C 236.904 112.895,236.945 113.107,236.993 112.787 C 237.042 112.467,237.040 111.993,236.990 111.734 C 236.940 111.475,236.901 111.737,236.902 112.316 M139.211 113.368 C 139.213 113.832,139.256 113.996,139.307 113.734 C 139.357 113.473,139.355 113.094,139.303 112.892 C 139.250 112.691,139.209 112.905,139.211 113.368 M182.996 113.474 C 182.996 113.879,183.040 114.045,183.092 113.842 C 183.145 113.639,183.145 113.308,183.092 113.105 C 183.040 112.903,182.996 113.068,182.996 113.474 M269.331 114.526 C 269.331 115.279,269.369 115.587,269.415 115.211 C 269.462 114.834,269.462 114.218,269.415 113.842 C 269.369 113.466,269.331 113.774,269.331 114.526 M263.850 115.895 C 263.851 116.474,263.892 116.686,263.941 116.366 C 263.989 116.046,263.988 115.572,263.938 115.313 C 263.888 115.054,263.848 115.316,263.850 115.895 M108.065 116.526 C 108.066 117.221,108.106 117.480,108.153 117.101 C 108.199 116.723,108.198 116.155,108.150 115.838 C 108.102 115.522,108.064 115.832,108.065 116.526 " stroke="none" fill="#848484" fill-rule="evenodd"></path></g></svg>