<svg id="svg" version="1.1" xmlns="http://www.w3.org/2000/svg" xmlns:xlink="http://www.w3.org/1999/xlink" width="400" height="221.4736842105263" viewBox="0, 0, 400,221.4736842105263"><g id="svgg"><path id="path0" d="M159.789 60.737 L 159.789 68.632 198.421 68.632 L 237.053 68.632 237.053 60.737 L 237.053 52.842 198.421 52.842 L 159.789 52.842 159.789 60.737 M166.186 55.947 C 166.256 56.382,166.394 57.410,166.494 58.233 C 166.594 59.056,166.745 59.843,166.831 59.982 C 166.917 60.121,167.070 60.726,167.171 61.328 C 167.529 63.456,167.611 63.898,167.705 64.188 C 167.911 64.828,168.096 64.092,168.244 62.043 C 168.329 60.862,168.499 59.421,168.621 58.842 C 168.744 58.263,168.897 57.411,168.961 56.947 C 169.222 55.078,169.156 55.158,170.428 55.158 L 171.586 55.158 171.530 60.892 C 171.479 66.067,171.439 66.633,171.120 66.694 C 170.690 66.777,170.599 66.264,170.236 61.684 C 170.003 58.744,169.962 58.536,169.818 59.579 C 169.731 60.216,169.523 61.495,169.356 62.421 C 169.190 63.347,169.002 64.460,168.939 64.894 C 168.695 66.563,167.025 67.245,166.647 65.830 C 166.304 64.544,165.679 60.640,165.660 59.658 C 165.622 57.733,165.291 59.586,165.275 61.810 C 165.243 66.284,164.771 67.884,164.023 66.053 C 163.730 65.335,163.406 56.124,163.651 55.484 C 163.743 55.245,164.081 55.158,164.918 55.158 L 166.059 55.158 166.186 55.947 M178.613 55.425 C 179.291 56.103,179.368 56.657,179.368 60.818 C 179.368 66.027,179.057 66.765,176.878 66.721 C 174.527 66.675,174.072 65.635,174.150 60.487 L 174.211 56.448 174.829 55.803 C 175.517 55.085,178.023 54.835,178.613 55.425 M182.640 55.943 C 182.999 56.699,183.168 57.779,183.548 61.740 C 183.719 63.515,183.859 64.001,184.124 63.736 C 184.245 63.614,184.476 62.161,184.832 59.263 C 185.228 56.046,185.529 55.158,186.224 55.158 C 186.930 55.158,187.014 55.448,186.666 56.687 C 186.495 57.293,186.297 58.547,186.225 59.474 C 185.991 62.492,185.325 66.058,184.919 66.474 C 184.416 66.988,183.285 66.798,183.032 66.158 C 182.678 65.261,182.316 63.639,182.316 62.947 C 182.316 62.603,182.226 61.918,182.117 61.424 C 181.171 57.146,181.054 55.158,181.748 55.158 C 182.141 55.158,182.358 55.349,182.640 55.943 M190.091 55.755 C 190.495 56.729,190.311 65.991,189.879 66.422 C 188.936 67.364,188.842 66.856,188.842 60.820 L 188.842 55.158 189.343 55.158 C 189.694 55.158,189.917 55.336,190.091 55.755 M195.232 56.053 C 195.408 56.545,195.607 57.516,195.675 58.211 C 195.743 58.905,195.939 59.939,196.110 60.507 C 196.281 61.076,196.421 62.041,196.421 62.653 C 196.421 64.840,196.861 64.332,197.259 61.684 C 197.390 60.816,197.632 59.442,197.798 58.632 C 197.963 57.821,198.153 56.708,198.220 56.158 L 198.342 55.158 199.487 55.158 L 200.632 55.158 200.632 60.479 C 200.632 65.086,200.585 65.868,200.284 66.297 L 199.936 66.794 199.601 66.186 C 199.342 65.719,199.238 64.683,199.146 61.684 C 199.081 59.542,199.009 58.343,198.987 59.020 C 198.965 59.697,198.808 60.739,198.638 61.336 C 198.468 61.933,198.240 63.158,198.131 64.060 C 197.759 67.150,195.579 67.919,195.579 64.961 C 195.579 64.448,195.486 63.782,195.371 63.481 C 195.257 63.181,195.014 61.920,194.831 60.678 C 194.336 57.330,194.106 57.519,194.103 61.274 C 194.101 65.113,193.943 66.737,193.572 66.737 C 193.102 66.737,193.053 66.154,193.053 60.614 L 193.053 55.158 193.983 55.158 C 194.886 55.158,194.922 55.183,195.232 56.053 M204.632 60.614 C 204.632 66.405,204.597 66.737,203.987 66.737 C 203.392 66.737,203.263 65.673,203.263 60.737 C 203.263 55.708,203.347 55.158,204.109 55.158 L 204.632 55.158 204.632 60.614 M211.368 55.579 C 211.368 55.944,211.228 56.000,210.316 56.000 L 209.263 56.000 209.263 58.000 L 209.263 60.000 209.983 60.000 C 210.963 60.000,211.368 60.185,211.368 60.632 C 211.368 61.078,210.963 61.263,209.983 61.263 L 209.263 61.263 209.263 63.462 L 209.263 65.661 210.263 65.725 C 211.122 65.780,211.273 65.857,211.332 66.272 C 211.399 66.747,211.373 66.753,209.542 66.693 L 207.684 66.632 207.621 62.000 C 207.586 59.453,207.616 56.871,207.688 56.263 L 207.820 55.158 209.594 55.158 C 211.228 55.158,211.368 55.191,211.368 55.579 M216.099 55.632 C 216.375 56.855,217.053 61.276,217.053 61.853 C 217.053 63.822,217.430 62.290,217.550 59.835 C 217.743 55.879,217.862 55.158,218.320 55.158 C 218.658 55.158,218.703 55.581,218.839 60.053 C 219.042 66.736,219.057 66.616,217.986 66.694 C 216.934 66.772,216.770 66.490,216.320 63.830 C 216.150 62.823,215.870 61.337,215.699 60.526 C 215.528 59.716,215.359 58.721,215.324 58.316 C 215.289 57.911,215.189 59.332,215.102 61.474 C 214.940 65.434,214.787 66.545,214.383 66.679 C 213.915 66.835,213.810 65.853,213.730 60.579 L 213.648 55.158 214.820 55.158 C 215.863 55.158,216.004 55.210,216.099 55.632 M225.529 55.284 C 225.761 55.515,225.433 56.000,225.046 56.000 C 224.427 56.000,224.249 57.072,224.138 61.474 C 224.031 65.751,223.942 66.423,223.456 66.609 C 222.764 66.875,222.637 65.915,222.699 60.895 L 222.759 56.000 221.801 56.000 C 220.982 56.000,220.842 55.938,220.842 55.579 C 220.842 55.163,225.138 54.892,225.529 55.284 M232.434 55.807 C 233.106 56.751,233.148 65.263,232.484 65.881 C 231.428 66.866,230.214 66.998,228.864 66.278 C 227.765 65.691,227.747 65.585,227.829 60.251 L 227.895 55.975 228.421 55.571 C 229.376 54.838,231.847 54.983,232.434 55.807 M176.150 56.130 C 176.068 56.213,176.000 58.349,176.000 60.877 L 176.000 65.474 176.813 65.474 L 177.626 65.474 177.758 64.368 C 177.931 62.927,177.895 57.310,177.708 56.632 C 177.563 56.107,176.512 55.768,176.150 56.130 M229.579 57.684 C 229.497 58.610,229.499 60.742,229.583 62.421 L 229.735 65.474 230.552 65.474 L 231.368 65.474 231.368 61.144 C 231.368 56.430,231.282 56.000,230.330 56.000 C 229.730 56.000,229.727 56.006,229.579 57.684 M117.474 82.842 L 117.474 90.737 141.158 90.737 L 164.842 90.737 164.842 82.842 L 164.842 74.947 141.158 74.947 L 117.474 74.947 117.474 82.842 M212.421 82.842 L 212.421 90.737 242.842 90.737 L 273.263 90.737 273.263 82.842 L 273.263 74.947 242.842 74.947 L 212.421 74.947 212.421 82.842 M131.619 77.285 C 132.336 77.669,131.685 78.105,130.395 78.105 L 129.263 78.105 129.263 80.105 L 129.263 82.105 130.170 82.105 C 131.151 82.105,131.945 82.525,131.704 82.915 C 131.621 83.050,131.046 83.158,130.409 83.158 L 129.263 83.158 129.263 85.342 L 129.263 87.527 130.421 87.623 C 132.746 87.816,132.178 88.421,129.672 88.421 L 127.789 88.421 127.789 82.872 L 127.789 77.323 128.684 77.099 C 129.657 76.855,130.972 76.938,131.619 77.285 M137.448 77.316 C 137.929 78.614,138.297 79.999,138.414 80.947 C 138.486 81.526,138.682 82.474,138.851 83.053 C 139.367 84.821,139.965 88.305,139.785 88.497 C 139.344 88.970,138.466 88.298,138.162 87.253 C 137.724 85.750,137.606 85.586,136.914 85.516 C 135.628 85.386,135.231 85.733,135.073 87.122 C 134.929 88.403,134.747 88.632,133.878 88.632 C 133.405 88.632,133.313 87.378,133.692 86.104 C 134.118 84.671,134.614 82.139,135.009 79.384 C 135.325 77.182,136.902 75.844,137.448 77.316 M144.474 76.977 C 145.440 77.137,145.685 78.105,144.759 78.105 C 144.011 78.105,143.943 78.454,143.785 83.158 C 143.649 87.185,143.437 88.632,142.980 88.632 C 142.643 88.632,142.531 87.130,142.529 82.579 L 142.526 78.105 141.710 78.105 C 140.888 78.105,140.191 77.640,140.618 77.377 C 141.242 76.991,143.281 76.780,144.474 76.977 M150.914 77.146 C 152.433 77.551,152.617 77.852,152.625 79.949 C 152.631 81.433,152.570 81.741,152.211 82.049 C 151.979 82.247,151.789 82.524,151.789 82.664 C 151.789 82.804,151.979 82.979,152.211 83.053 C 152.901 83.272,152.853 88.142,152.158 88.400 C 151.317 88.713,151.220 88.494,151.062 85.937 C 150.903 83.358,150.821 83.167,149.867 83.161 C 149.173 83.157,149.059 83.532,149.056 85.828 C 149.052 87.852,148.819 88.632,148.216 88.632 C 147.798 88.632,147.789 88.515,147.789 82.737 L 147.789 76.842 148.789 76.845 C 149.339 76.846,150.295 76.982,150.914 77.146 M232.016 77.163 C 233.393 77.649,233.684 78.006,233.684 79.204 L 233.684 80.237 233.000 80.171 C 232.448 80.118,232.304 80.004,232.257 79.579 C 232.106 78.229,232.023 78.105,231.267 78.105 C 230.184 78.105,230.105 78.433,230.108 82.881 C 230.112 87.290,230.143 87.411,231.292 87.448 L 232.105 87.474 232.167 85.842 C 232.226 84.271,232.208 84.200,231.693 83.966 C 230.629 83.481,231.010 82.947,232.421 82.947 L 233.684 82.947 233.684 85.657 L 233.684 88.367 232.450 88.506 C 228.923 88.905,228.752 88.684,228.670 83.623 C 228.577 77.884,228.592 77.810,229.959 77.285 C 230.560 77.053,231.064 76.859,231.079 76.853 C 231.093 76.847,231.515 76.987,232.016 77.163 M238.788 78.485 C 238.986 79.145,239.251 80.253,239.376 80.947 C 239.501 81.642,239.692 82.684,239.801 83.263 C 239.910 83.842,240.033 84.553,240.076 84.842 C 240.118 85.132,240.166 83.545,240.182 81.316 C 240.198 79.087,240.250 77.263,240.299 77.263 C 240.347 77.263,240.524 77.210,240.692 77.146 C 241.578 76.806,241.684 77.441,241.684 83.044 L 241.684 88.374 240.976 88.507 C 239.738 88.739,239.131 87.513,238.536 83.579 C 238.440 82.942,238.309 82.232,238.245 82.000 C 238.181 81.768,238.052 81.200,237.959 80.737 C 237.842 80.154,237.757 81.216,237.684 84.193 C 237.580 88.460,237.504 88.844,236.849 88.430 C 236.476 88.194,236.088 81.244,236.312 78.825 C 236.537 76.404,238.099 76.189,238.788 78.485 M259.601 77.494 C 259.866 78.024,260.187 79.434,260.530 81.579 C 260.716 82.737,261.001 84.158,261.164 84.737 C 261.500 85.933,261.895 87.870,261.895 88.326 C 261.895 88.660,261.124 88.737,260.668 88.448 C 260.515 88.351,260.336 87.855,260.271 87.346 C 260.105 86.040,259.887 85.722,259.051 85.565 C 257.791 85.328,257.263 85.580,257.263 86.415 C 257.263 87.758,256.700 88.623,255.823 88.628 C 255.277 88.632,255.251 87.468,255.756 85.579 C 256.152 84.096,256.667 81.818,256.825 80.842 C 257.366 77.521,258.769 75.829,259.601 77.494 M124.947 77.238 C 125.728 77.405,125.746 77.704,124.995 78.064 C 124.261 78.415,124.255 78.455,124.133 83.662 C 124.022 88.377,123.864 89.047,122.996 88.500 C 122.674 88.297,122.619 87.727,122.526 83.556 C 122.414 78.550,122.337 78.105,121.579 78.105 C 120.908 78.105,120.722 77.508,121.319 77.268 C 121.854 77.053,124.001 77.035,124.947 77.238 M159.176 77.293 C 160.318 77.635,160.421 78.109,160.421 82.989 C 160.421 88.166,160.369 88.322,158.585 88.500 C 155.437 88.815,155.417 88.782,155.392 83.158 C 155.363 76.907,155.772 76.274,159.176 77.293 M176.038 77.292 C 174.842 77.636,174.696 78.330,174.774 83.271 C 174.850 88.052,174.913 88.258,176.356 88.492 C 177.800 88.726,178.949 88.428,179.390 87.705 C 179.921 86.834,179.995 79.114,179.482 78.122 C 179.030 77.247,177.486 76.875,176.038 77.292 M219.900 77.280 L 221.204 77.507 221.464 78.595 C 221.839 80.169,221.690 86.831,221.261 87.684 L 220.943 88.316 218.787 88.376 L 216.632 88.436 216.632 82.867 C 216.632 78.609,216.694 77.273,216.895 77.192 C 217.348 77.009,218.547 77.044,219.900 77.280 M225.623 77.686 C 225.906 78.244,226.013 86.096,225.760 87.632 C 225.581 88.713,224.748 88.785,224.551 87.737 C 224.263 86.204,224.146 77.987,224.406 77.503 C 224.723 76.910,225.273 76.993,225.623 77.686 M245.589 79.303 C 245.987 83.541,245.498 88.789,244.734 88.496 C 244.308 88.332,244.260 77.359,244.684 77.200 C 245.153 77.024,245.438 77.687,245.589 79.303 M252.678 77.499 C 253.361 77.864,253.474 78.649,253.474 83.034 C 253.474 88.509,253.523 88.421,250.467 88.421 L 248.421 88.421 248.421 82.858 C 248.421 77.741,248.451 77.285,248.789 77.186 C 249.340 77.024,252.224 77.256,252.678 77.499 M268.114 77.565 C 268.890 78.074,269.293 82.503,268.859 85.756 C 268.502 88.436,268.517 88.421,266.087 88.421 L 264.064 88.421 263.927 86.178 C 263.652 81.686,263.750 77.753,264.148 77.356 C 264.583 76.921,267.353 77.067,268.114 77.565 M168.211 82.842 L 168.211 88.421 168.714 88.421 C 169.393 88.421,169.474 88.117,169.474 85.562 L 169.474 83.368 170.217 83.368 C 172.466 83.368,173.304 81.685,172.589 78.608 C 172.306 77.390,171.999 77.263,169.339 77.263 L 168.211 77.263 168.211 82.842 M182.316 82.855 L 182.316 88.446 183.105 88.381 L 183.895 88.316 183.827 85.737 L 183.759 83.158 184.932 83.158 L 186.105 83.158 186.105 85.789 L 186.105 88.421 186.743 88.421 L 187.381 88.421 187.322 85.737 C 187.265 83.134,187.249 83.051,186.789 82.985 C 186.164 82.897,186.188 82.576,186.842 82.277 C 187.356 82.043,187.368 81.984,187.368 79.784 L 187.368 77.531 186.392 77.397 C 185.854 77.323,184.718 77.263,183.865 77.263 L 182.316 77.263 182.316 82.855 M196.561 77.404 C 196.484 77.481,196.421 79.995,196.421 82.990 L 196.421 88.437 198.368 88.376 C 200.550 88.309,200.931 87.956,199.004 87.789 L 197.789 87.684 197.684 82.737 C 197.626 80.016,197.502 77.671,197.409 77.526 C 197.224 77.241,196.787 77.178,196.561 77.404 M203.993 78.158 C 203.988 78.650,203.842 79.621,203.668 80.316 C 203.494 81.011,203.263 82.100,203.155 82.737 C 203.047 83.374,202.770 84.558,202.538 85.368 C 201.946 87.442,201.960 88.421,202.581 88.421 C 203.132 88.421,203.465 87.970,203.673 86.940 C 203.979 85.429,203.930 85.474,205.264 85.474 L 206.501 85.474 206.633 86.474 C 206.830 87.960,207.118 88.421,207.850 88.421 C 208.393 88.421,208.453 88.362,208.333 87.947 C 208.258 87.687,208.102 86.905,207.987 86.211 C 207.872 85.516,207.678 84.663,207.556 84.316 C 207.287 83.548,207.000 81.962,206.700 79.579 C 206.425 77.402,206.325 77.263,205.027 77.263 L 204.000 77.263 203.993 78.158 M177.529 77.947 C 178.295 78.375,178.309 78.460,178.313 82.674 C 178.316 87.312,178.206 87.789,177.132 87.789 C 176.117 87.789,175.942 86.915,176.037 82.325 C 176.128 77.863,176.328 77.276,177.529 77.947 M157.159 78.315 C 156.830 78.678,156.588 86.986,156.898 87.282 C 156.925 87.308,157.397 87.396,157.947 87.478 L 158.947 87.627 158.940 84.392 C 158.928 78.613,158.429 76.911,157.159 78.315 M149.180 78.438 C 148.664 79.784,149.114 82.105,149.891 82.105 C 151.003 82.105,151.573 79.151,150.603 78.416 C 150.076 78.017,149.338 78.028,149.180 78.438 M170.865 78.474 C 171.226 78.950,171.258 81.921,170.905 82.274 C 169.945 83.234,169.267 81.881,169.543 79.554 C 169.723 78.035,170.222 77.627,170.865 78.474 M185.564 78.384 C 185.850 78.593,185.968 79.029,186.036 80.121 C 186.139 81.775,186.022 82.052,185.147 82.213 C 184.101 82.405,183.930 82.121,183.829 80.016 L 183.738 78.105 184.460 78.105 C 184.858 78.105,185.354 78.231,185.564 78.384 M217.895 82.842 L 217.895 87.579 218.540 87.579 C 220.010 87.579,220.000 87.610,220.000 82.911 C 220.000 78.206,219.976 78.126,218.579 78.112 L 217.895 78.105 217.895 82.842 M250.105 82.870 L 250.105 87.634 250.868 87.510 C 251.941 87.336,251.895 87.545,251.895 82.913 C 251.895 78.317,251.837 78.105,250.591 78.105 L 250.105 78.105 250.105 82.870 M265.263 82.842 C 265.263 86.492,265.324 87.578,265.526 87.577 C 265.671 87.575,266.145 87.516,266.579 87.444 L 267.368 87.313 267.368 82.841 L 267.368 78.368 266.711 78.237 C 265.152 77.925,265.263 77.570,265.263 82.842 M205.531 79.955 C 205.586 80.385,205.785 81.417,205.973 82.247 C 206.418 84.213,206.328 84.421,205.030 84.421 C 204.464 84.421,204.000 84.335,204.000 84.229 C 204.000 84.123,204.142 83.294,204.316 82.387 C 204.489 81.479,204.632 80.437,204.632 80.070 C 204.632 78.525,205.336 78.436,205.531 79.955 M258.036 81.421 C 257.837 82.897,257.677 84.176,257.679 84.263 C 257.682 84.350,258.168 84.421,258.759 84.421 C 259.704 84.421,259.815 84.376,259.675 84.053 C 259.587 83.850,259.444 83.021,259.356 82.211 C 258.905 78.031,258.523 77.802,258.036 81.421 M136.326 79.352 C 136.247 79.479,136.089 80.506,135.974 81.634 C 135.859 82.761,135.676 83.774,135.567 83.884 C 135.169 84.285,135.390 84.421,136.440 84.421 L 137.511 84.421 137.420 83.211 C 137.237 80.770,136.675 78.787,136.326 79.352 " stroke="none" fill="#fafafa" fill-rule="evenodd"></path><path id="path1" d="M0.052 110.684 L 0.000 221.474 200.000 221.474 L 400.000 221.474 400.000 110.737 L 400.000 0.000 200.211 0.000 L 0.421 0.000 0.369 69.000 L 0.317 138.000 0.211 68.947 C 0.110 3.296,0.102 5.352,0.052 110.684 M237.053 60.842 L 237.053 68.842 198.316 68.842 L 159.579 68.842 159.579 60.842 L 159.579 52.842 198.316 52.842 L 237.053 52.842 237.053 60.842 M163.674 56.550 C 163.308 59.962,163.944 66.818,164.614 66.691 C 164.965 66.624,165.135 64.675,165.260 59.263 C 165.314 56.888,165.608 56.976,165.659 59.383 C 165.673 60.028,165.874 61.443,166.105 62.526 C 166.337 63.610,166.526 64.743,166.526 65.044 C 166.526 65.822,167.086 66.526,167.704 66.526 C 168.327 66.526,169.048 65.091,169.060 63.825 C 169.064 63.400,169.204 62.484,169.371 61.789 C 169.537 61.095,169.737 59.837,169.814 58.994 C 169.891 58.152,169.979 57.489,170.010 57.521 C 170.041 57.553,170.172 59.237,170.302 61.263 C 170.608 66.065,170.699 66.737,171.043 66.737 C 171.531 66.737,171.579 66.193,171.579 60.614 L 171.579 55.158 170.434 55.158 L 169.289 55.158 169.154 56.158 C 169.079 56.708,168.868 57.868,168.685 58.737 C 168.502 59.605,168.296 61.263,168.228 62.421 C 168.105 64.527,167.810 65.108,167.554 63.746 C 167.483 63.365,167.263 62.342,167.065 61.474 C 166.868 60.605,166.624 59.279,166.524 58.526 C 166.423 57.774,166.294 56.968,166.236 56.737 C 166.178 56.505,166.076 56.055,166.009 55.737 C 165.896 55.201,165.811 55.158,164.855 55.158 L 163.823 55.158 163.674 56.550 M175.429 55.295 C 174.282 55.760,173.605 63.434,174.541 65.353 C 175.401 67.116,178.493 67.117,179.163 65.355 C 179.472 64.541,179.426 56.993,179.108 56.273 C 178.666 55.275,176.740 54.763,175.429 55.295 M181.395 56.579 C 181.460 57.361,181.656 58.711,181.831 59.579 C 182.007 60.447,182.232 61.726,182.330 62.421 C 182.885 66.326,183.052 66.737,184.077 66.737 C 185.173 66.737,185.644 65.019,186.326 58.526 C 186.441 57.426,186.592 56.218,186.660 55.842 C 186.775 55.213,186.740 55.158,186.234 55.158 C 185.830 55.158,185.684 55.266,185.684 55.567 C 185.684 55.791,185.602 56.026,185.502 56.088 C 185.316 56.203,185.185 56.952,184.851 59.789 C 184.260 64.819,183.831 65.381,183.485 61.579 C 183.174 58.157,182.933 56.789,182.420 55.526 C 181.967 54.412,181.276 55.122,181.395 56.579 M188.891 60.787 C 188.942 65.867,188.982 66.422,189.302 66.484 C 190.065 66.630,190.210 65.779,190.210 61.158 C 190.211 55.930,190.101 55.158,189.355 55.158 L 188.835 55.158 188.891 60.787 M193.053 60.289 C 193.053 65.631,193.142 66.737,193.573 66.737 C 193.822 66.737,194.102 62.878,194.104 59.421 C 194.106 57.644,194.436 57.757,194.718 59.632 C 194.844 60.471,195.057 61.584,195.191 62.105 C 195.325 62.626,195.499 63.742,195.578 64.584 C 195.907 68.092,197.838 67.226,198.198 63.408 C 198.278 62.561,198.480 61.483,198.646 61.013 C 198.812 60.542,198.963 59.577,198.982 58.868 C 199.001 58.159,199.082 59.189,199.163 61.158 C 199.243 63.126,199.426 65.162,199.570 65.681 L 199.832 66.625 200.232 66.131 C 200.601 65.676,200.632 65.231,200.632 60.398 L 200.632 55.158 199.490 55.158 L 198.349 55.158 198.216 56.579 C 198.143 57.361,197.949 58.568,197.784 59.263 C 197.620 59.958,197.381 61.237,197.253 62.105 C 196.857 64.805,196.431 65.170,196.424 62.815 C 196.423 62.221,196.289 61.416,196.129 61.026 C 195.968 60.635,195.776 59.700,195.702 58.947 C 195.629 58.195,195.405 57.034,195.205 56.368 L 194.842 55.158 193.947 55.158 L 193.053 55.158 193.053 60.289 M203.472 56.263 C 203.224 58.266,203.440 66.262,203.751 66.569 C 204.473 67.281,204.632 66.266,204.632 60.924 C 204.632 55.506,204.593 55.158,203.993 55.158 C 203.688 55.158,203.581 55.385,203.472 56.263 M207.789 60.829 L 207.789 66.501 208.684 66.635 C 210.231 66.866,211.263 66.697,211.263 66.211 C 211.263 65.851,211.102 65.780,210.158 65.726 L 209.053 65.662 209.053 63.463 C 209.053 61.288,209.058 61.263,209.553 61.263 C 210.621 61.263,211.368 61.003,211.368 60.632 C 211.368 60.260,210.621 60.000,209.553 60.000 C 209.061 60.000,209.053 59.965,209.053 58.000 L 209.053 56.000 210.211 56.000 C 211.228 56.000,211.368 55.949,211.368 55.579 C 211.368 55.191,211.228 55.158,209.579 55.158 L 207.789 55.158 207.789 60.829 M213.762 55.719 C 213.526 56.660,213.828 65.798,214.113 66.330 C 214.567 67.178,214.744 66.316,214.950 62.266 C 215.058 60.151,215.162 58.184,215.182 57.895 C 215.201 57.605,215.293 57.842,215.385 58.421 C 215.477 59.000,215.645 59.900,215.759 60.421 C 215.873 60.942,216.120 62.268,216.307 63.368 C 216.851 66.565,216.948 66.772,217.862 66.696 L 218.632 66.632 218.688 60.895 C 218.743 55.264,218.736 55.158,218.319 55.158 C 217.963 55.158,217.891 55.303,217.874 56.053 C 217.800 59.240,217.336 63.839,217.190 62.842 C 216.718 59.631,216.374 57.444,216.172 56.368 L 215.945 55.158 214.924 55.158 C 213.994 55.158,213.890 55.208,213.762 55.719 M220.982 55.298 C 220.566 55.715,220.894 56.000,221.789 56.000 L 222.737 56.000 222.737 60.605 C 222.737 65.690,222.828 66.580,223.336 66.482 C 223.827 66.388,223.967 65.390,224.125 60.842 C 224.274 56.548,224.380 56.000,225.060 56.000 C 225.333 56.000,225.474 55.857,225.474 55.579 C 225.474 55.153,221.383 54.898,220.982 55.298 M228.405 55.701 C 227.380 56.791,227.537 65.609,228.590 66.100 C 228.903 66.246,229.322 66.449,229.523 66.551 C 230.285 66.938,231.669 66.634,232.421 65.913 C 233.030 65.329,232.995 56.777,232.380 55.874 C 231.711 54.891,229.267 54.784,228.405 55.701 M177.652 56.368 C 178.053 57.132,178.147 58.687,177.999 62.132 L 177.847 65.684 176.947 65.684 L 176.048 65.684 175.896 62.336 C 175.761 59.370,175.870 56.615,176.142 56.158 C 176.329 55.842,177.459 56.000,177.652 56.368 M231.241 56.333 C 231.311 56.516,231.368 58.695,231.368 61.175 L 231.368 65.684 230.553 65.684 C 229.513 65.684,229.473 65.511,229.476 60.974 C 229.479 56.360,229.548 56.000,230.426 56.000 C 230.858 56.000,231.160 56.124,231.241 56.333 M164.842 82.842 L 164.842 90.737 141.158 90.737 L 117.474 90.737 117.474 82.842 L 117.474 74.947 141.158 74.947 L 164.842 74.947 164.842 82.842 M273.263 82.842 L 273.263 90.737 242.737 90.737 L 212.211 90.737 212.211 82.842 L 212.211 74.947 242.737 74.947 L 273.263 74.947 273.263 82.842 M178.131 77.165 C 179.756 77.734,179.779 77.815,179.785 82.883 C 179.790 88.067,179.709 88.310,177.893 88.550 C 175.040 88.926,174.737 88.390,174.737 82.969 C 174.737 78.082,174.827 77.691,176.058 77.228 C 177.218 76.791,177.076 76.795,178.131 77.165 M121.619 77.208 C 120.929 77.308,120.901 77.947,121.581 78.073 C 122.496 78.243,122.525 78.388,122.551 82.921 C 122.580 87.884,122.661 88.526,123.263 88.526 C 123.854 88.526,123.946 87.877,123.976 83.474 C 124.005 79.352,124.203 78.105,124.829 78.105 C 125.151 78.105,125.622 77.523,125.426 77.368 C 125.292 77.261,122.161 77.130,121.619 77.208 M128.368 77.193 L 127.789 77.291 127.789 82.864 L 127.789 88.437 129.720 88.376 C 132.016 88.304,132.739 87.789,130.544 87.789 L 129.263 87.789 129.263 85.500 L 129.263 83.210 130.421 83.114 C 132.298 82.958,132.086 82.105,130.170 82.105 L 129.263 82.105 129.263 80.105 L 129.263 78.105 130.399 78.105 C 131.465 78.105,132.094 77.708,131.681 77.295 C 131.527 77.141,129.114 77.066,128.368 77.193 M135.708 77.325 C 135.447 77.516,135.251 78.160,135.052 79.483 C 134.538 82.901,134.322 84.090,133.980 85.368 C 133.387 87.589,133.364 88.358,133.885 88.523 C 134.574 88.742,134.894 88.311,135.051 86.958 C 135.170 85.934,135.272 85.703,135.650 85.602 C 136.458 85.385,137.694 85.463,137.782 85.737 C 137.828 85.882,138.014 86.534,138.195 87.186 C 138.525 88.378,139.431 89.052,139.713 88.317 C 139.840 87.985,139.237 84.590,138.852 83.474 C 138.692 83.011,138.497 82.063,138.418 81.368 C 138.339 80.674,138.142 79.786,137.979 79.395 C 137.817 79.005,137.684 78.468,137.684 78.202 C 137.684 77.074,136.668 76.623,135.708 77.325 M141.368 77.195 C 140.427 77.403,140.358 77.459,140.634 77.792 C 140.782 77.971,141.244 78.105,141.710 78.105 L 142.526 78.105 142.527 80.579 C 142.529 84.855,142.771 88.421,143.061 88.421 C 143.445 88.421,143.555 87.482,143.695 83.053 C 143.829 78.800,143.980 78.105,144.772 78.105 C 145.430 78.105,145.444 77.361,144.789 77.185 C 144.262 77.044,142.022 77.050,141.368 77.195 M147.789 82.693 C 147.789 85.891,147.874 88.448,147.981 88.515 C 148.621 88.910,148.842 88.368,148.863 86.346 C 148.893 83.498,148.980 83.263,150.007 83.263 C 150.991 83.263,151.093 83.523,151.133 86.141 C 151.162 88.036,151.276 88.421,151.805 88.421 C 152.730 88.421,153.094 83.661,152.211 83.109 C 151.979 82.964,151.789 82.741,151.789 82.614 C 151.789 82.486,151.979 82.210,152.211 82.000 C 152.738 81.522,152.810 79.061,152.324 78.120 C 151.933 77.365,151.650 77.263,149.526 77.113 L 147.789 76.990 147.789 82.693 M156.779 77.256 C 155.456 77.512,155.474 77.436,155.474 82.820 C 155.474 88.357,155.459 88.303,157.002 88.473 C 160.152 88.822,160.413 88.386,160.418 82.761 C 160.422 77.780,159.919 76.717,157.726 77.077 C 157.645 77.090,157.219 77.171,156.779 77.256 M217.000 77.188 C 216.661 77.286,216.632 77.740,216.632 82.858 L 216.632 88.421 218.711 88.421 C 221.100 88.421,221.098 88.422,221.442 86.649 C 222.098 83.274,221.570 77.715,220.570 77.450 C 219.741 77.231,217.440 77.062,217.000 77.188 M224.626 77.376 C 224.005 78.123,224.423 88.421,225.074 88.421 C 225.687 88.421,225.789 87.626,225.789 82.842 C 225.789 77.585,225.516 76.302,224.626 77.376 M229.900 77.328 C 228.695 77.742,228.619 78.102,228.681 83.118 C 228.750 88.623,228.916 88.854,232.547 88.480 L 233.684 88.362 233.684 85.644 L 233.684 82.926 232.476 82.989 C 231.190 83.057,230.556 83.675,231.619 83.826 C 232.075 83.890,232.109 84.000,232.166 85.599 C 232.239 87.654,232.026 87.978,230.877 87.563 L 230.155 87.302 230.075 84.861 C 229.899 79.425,230.119 78.035,231.158 78.035 C 231.964 78.035,232.053 78.136,232.197 79.214 C 232.374 80.545,233.550 80.585,233.631 79.263 C 233.737 77.516,231.990 76.610,229.900 77.328 M236.789 77.193 C 236.451 77.286,236.423 77.700,236.442 82.279 C 236.465 87.706,236.538 88.316,237.167 88.316 C 237.559 88.316,237.584 88.106,237.684 84.000 C 237.742 81.626,237.852 79.921,237.929 80.211 C 238.098 80.849,238.470 82.779,238.619 83.789 C 238.678 84.195,238.916 85.189,239.147 86.000 C 239.378 86.811,239.569 87.679,239.573 87.930 C 239.580 88.481,239.773 88.559,240.871 88.454 L 241.716 88.374 241.647 83.012 C 241.584 78.013,241.552 77.630,241.175 77.355 C 240.329 76.737,240.212 77.232,240.184 81.552 C 240.157 85.632,240.141 85.660,239.587 82.526 C 239.474 81.889,239.295 80.895,239.189 80.316 C 239.007 79.322,238.657 78.181,238.319 77.474 C 238.164 77.149,237.439 77.016,236.789 77.193 M249.000 77.201 L 248.421 77.291 248.421 82.856 L 248.421 88.421 250.522 88.421 L 252.623 88.421 253.048 87.587 C 253.431 86.837,253.474 86.352,253.474 82.735 C 253.474 78.140,253.333 77.568,252.157 77.387 C 250.862 77.187,249.577 77.112,249.000 77.201 M258.053 77.198 C 257.846 77.252,257.683 77.495,257.681 77.752 C 257.679 78.004,257.523 78.637,257.332 79.158 C 257.142 79.679,256.916 80.579,256.830 81.158 C 256.681 82.166,256.229 84.211,255.761 86.000 C 255.183 88.204,255.296 88.764,256.266 88.520 C 256.754 88.398,257.263 87.174,257.263 86.125 C 257.263 85.659,257.658 85.474,258.649 85.474 C 259.629 85.474,260.133 86.041,260.313 87.346 C 260.460 88.417,261.032 88.929,261.652 88.546 C 261.897 88.395,261.734 86.978,261.321 85.684 C 261.155 85.163,260.883 83.932,260.715 82.947 C 259.680 76.864,259.642 76.782,258.053 77.198 M264.474 77.199 L 264.000 77.292 264.000 82.857 L 264.000 88.421 265.995 88.421 L 267.989 88.421 268.363 87.737 C 268.766 86.999,268.931 79.539,268.573 78.256 C 268.349 77.454,266.110 76.877,264.474 77.199 M171.736 77.389 C 172.814 77.605,173.261 79.872,172.634 81.942 C 172.305 83.027,171.767 83.368,170.390 83.368 L 169.684 83.368 169.684 85.488 C 169.684 87.817,169.494 88.421,168.762 88.421 C 168.245 88.421,168.000 85.504,168.000 79.335 L 168.000 77.263 169.553 77.263 C 170.407 77.263,171.389 77.320,171.736 77.389 M186.579 77.398 L 187.368 77.529 187.368 79.781 C 187.368 81.961,187.351 82.043,186.849 82.312 C 186.273 82.620,186.330 82.947,186.960 82.947 C 187.343 82.947,187.368 83.115,187.368 85.684 L 187.368 88.421 186.737 88.421 L 186.105 88.421 186.105 85.789 L 186.105 83.158 184.990 83.158 L 183.876 83.158 183.963 85.789 L 184.051 88.421 183.183 88.421 L 182.316 88.421 182.316 82.842 L 182.316 77.263 184.053 77.265 C 185.008 77.267,186.145 77.327,186.579 77.398 M197.599 77.632 C 197.693 77.834,197.805 80.144,197.849 82.765 L 197.929 87.530 199.069 87.624 C 201.380 87.816,200.798 88.421,198.303 88.421 L 196.421 88.421 196.421 82.982 C 196.421 79.991,196.484 77.481,196.561 77.404 C 196.831 77.134,197.430 77.266,197.599 77.632 M206.632 79.195 C 206.747 80.200,206.913 81.092,207.000 81.178 C 207.087 81.263,207.158 81.695,207.158 82.136 C 207.158 82.578,207.297 83.296,207.468 83.733 C 207.638 84.169,207.884 85.142,208.014 85.895 C 208.145 86.647,208.300 87.524,208.360 87.842 C 208.459 88.371,208.413 88.421,207.826 88.421 C 207.052 88.421,206.955 88.283,206.655 86.762 L 206.421 85.579 205.255 85.517 L 204.088 85.455 203.834 86.685 C 203.427 88.654,202.105 89.316,202.105 87.551 C 202.105 86.710,202.197 86.238,202.756 84.211 C 202.899 83.689,203.090 82.837,203.179 82.316 C 203.269 81.795,203.448 80.942,203.577 80.421 C 203.706 79.900,203.866 78.972,203.933 78.359 L 204.054 77.244 205.237 77.306 L 206.421 77.368 206.632 79.195 M244.421 82.842 C 244.421 88.151,244.440 88.421,244.815 88.421 C 245.372 88.421,245.469 87.579,245.471 82.711 C 245.474 77.985,245.387 77.263,244.816 77.263 C 244.440 77.263,244.421 77.527,244.421 82.842 M158.733 78.817 C 158.952 79.445,159.042 87.789,158.830 87.789 C 158.766 87.789,158.301 87.686,157.797 87.559 L 156.881 87.328 156.729 84.897 C 156.484 80.974,156.679 78.546,157.274 78.097 C 157.878 77.641,158.416 77.907,158.733 78.817 M176.295 78.895 C 176.087 80.261,176.078 85.561,176.281 86.789 C 176.463 87.888,177.281 88.213,177.922 87.442 C 178.439 86.819,178.332 78.582,177.802 78.194 C 176.952 77.572,176.461 77.800,176.295 78.895 M150.747 78.434 C 151.136 78.902,151.233 80.839,150.899 81.474 C 150.490 82.251,149.425 82.313,149.091 81.580 C 148.204 79.632,149.577 77.024,150.747 78.434 M169.825 78.246 C 169.353 78.717,169.689 82.526,170.202 82.526 C 170.634 82.526,170.761 82.377,170.962 81.632 C 171.470 79.749,170.678 77.392,169.825 78.246 M183.887 80.053 C 184.062 82.299,184.003 82.175,184.885 82.150 C 185.871 82.122,186.164 81.615,185.995 80.230 C 185.812 78.730,185.721 78.530,185.115 78.300 C 183.798 77.799,183.720 77.911,183.887 80.053 M219.669 78.376 C 220.042 78.749,220.275 82.411,220.095 85.092 C 219.937 87.455,219.724 87.789,218.379 87.789 L 217.895 87.789 217.895 82.947 L 217.895 78.105 218.647 78.105 C 219.060 78.105,219.520 78.227,219.669 78.376 M251.717 78.653 C 252.582 79.972,252.183 87.079,251.220 87.526 C 249.856 88.160,249.895 88.295,249.895 82.947 L 249.895 78.105 250.627 78.105 C 251.183 78.105,251.445 78.237,251.717 78.653 M267.320 82.774 C 267.383 87.833,267.512 87.370,265.947 87.685 L 265.263 87.823 265.263 82.953 L 265.263 78.082 266.263 78.146 L 267.263 78.211 267.320 82.774 M258.948 79.316 C 259.075 79.750,259.262 80.863,259.364 81.789 C 259.466 82.716,259.615 83.687,259.694 83.947 C 259.831 84.396,259.781 84.421,258.761 84.421 C 257.493 84.421,257.550 84.680,258.028 81.105 C 258.393 78.381,258.572 78.032,258.948 79.316 M204.883 79.201 C 204.745 79.339,204.628 79.931,204.624 80.516 C 204.620 81.101,204.479 82.147,204.312 82.842 C 204.144 83.537,204.005 84.176,204.003 84.263 C 204.001 84.350,204.474 84.421,205.053 84.421 L 206.105 84.421 206.105 83.500 C 206.105 82.994,205.963 82.176,205.789 81.684 C 205.616 81.192,205.472 80.493,205.470 80.131 C 205.466 79.253,205.220 78.864,204.883 79.201 M137.055 80.474 C 137.389 82.180,137.623 84.202,137.500 84.325 C 137.176 84.648,135.331 84.402,135.466 84.053 C 135.712 83.416,136.000 81.661,136.000 80.800 C 136.000 78.891,136.702 78.674,137.055 80.474 " stroke="none" fill="#040404" fill-rule="evenodd"></path><path id="path2" d="M0.315 68.947 C 0.315 106.926,0.339 122.432,0.368 103.404 C 0.398 84.376,0.398 53.302,0.368 34.351 C 0.339 15.400,0.315 30.968,0.315 68.947 M209.130 58.000 C 209.130 59.158,209.165 59.605,209.208 58.993 C 209.251 58.381,209.250 57.434,209.207 56.888 C 209.164 56.342,209.129 56.842,209.130 58.000 M174.163 58.526 C 174.163 59.047,174.204 59.261,174.254 59.000 C 174.304 58.739,174.304 58.313,174.254 58.053 C 174.204 57.792,174.163 58.005,174.163 58.526 M214.996 60.421 C 214.996 60.826,215.040 60.992,215.092 60.789 C 215.145 60.587,215.145 60.255,215.092 60.053 C 215.040 59.850,214.996 60.016,214.996 60.421 M177.944 61.474 C 177.944 61.879,177.987 62.045,178.040 61.842 C 178.093 61.639,178.093 61.308,178.040 61.105 C 177.987 60.903,177.944 61.068,177.944 61.474 M209.131 63.474 C 209.132 64.747,209.167 65.241,209.208 64.571 C 209.250 63.901,209.250 62.859,209.208 62.255 C 209.165 61.652,209.131 62.200,209.131 63.474 M174.163 63.158 C 174.163 63.679,174.204 63.892,174.254 63.632 C 174.304 63.371,174.304 62.945,174.254 62.684 C 174.204 62.424,174.163 62.637,174.163 63.158 M193.952 63.579 C 193.952 64.100,193.993 64.313,194.043 64.053 C 194.093 63.792,194.093 63.366,194.043 63.105 C 193.993 62.845,193.952 63.058,193.952 63.579 M168.085 80.526 C 168.085 82.379,168.118 83.109,168.157 82.148 C 168.196 81.187,168.196 79.671,168.156 78.779 C 168.117 77.888,168.085 78.674,168.085 80.526 M224.271 79.474 C 224.272 80.053,224.313 80.264,224.362 79.944 C 224.410 79.624,224.409 79.151,224.359 78.892 C 224.309 78.633,224.269 78.895,224.271 79.474 M148.907 80.105 C 148.909 80.800,148.948 81.059,148.995 80.680 C 149.042 80.302,149.041 79.734,148.993 79.417 C 148.944 79.101,148.906 79.411,148.907 80.105 M263.869 81.263 C 263.869 82.595,263.903 83.139,263.945 82.474 C 263.987 81.808,263.987 80.718,263.945 80.053 C 263.903 79.387,263.869 79.932,263.869 81.263 M176.049 81.053 C 176.049 81.458,176.092 81.624,176.145 81.421 C 176.198 81.218,176.198 80.887,176.145 80.684 C 176.092 80.482,176.049 80.647,176.049 81.053 M252.053 81.789 C 252.055 82.253,252.099 82.417,252.149 82.155 C 252.199 81.894,252.197 81.515,252.145 81.313 C 252.092 81.112,252.051 81.326,252.053 81.789 M224.276 82.632 C 224.277 83.326,224.316 83.585,224.363 83.207 C 224.410 82.828,224.409 82.260,224.361 81.944 C 224.313 81.627,224.275 81.937,224.276 82.632 M252.057 84.000 C 252.057 84.521,252.098 84.734,252.149 84.474 C 252.199 84.213,252.199 83.787,252.149 83.526 C 252.098 83.266,252.057 83.479,252.057 84.000 M220.049 84.211 C 220.049 84.616,220.092 84.782,220.145 84.579 C 220.198 84.376,220.198 84.045,220.145 83.842 C 220.092 83.639,220.049 83.805,220.049 84.211 M148.907 85.368 C 148.909 86.063,148.948 86.322,148.995 85.944 C 149.042 85.565,149.041 84.997,148.993 84.680 C 148.944 84.364,148.906 84.674,148.907 85.368 M176.049 85.263 C 176.049 85.668,176.092 85.834,176.145 85.632 C 176.198 85.429,176.198 85.097,176.145 84.895 C 176.092 84.692,176.049 84.858,176.049 85.263 M142.589 85.895 C 142.589 86.532,142.629 86.792,142.677 86.474 C 142.725 86.155,142.725 85.634,142.677 85.316 C 142.629 84.997,142.589 85.258,142.589 85.895 M129.526 87.724 C 129.729 87.777,130.061 87.777,130.263 87.724 C 130.466 87.671,130.300 87.628,129.895 87.628 C 129.489 87.628,129.324 87.671,129.526 87.724 M218.158 87.724 C 218.361 87.777,218.692 87.777,218.895 87.724 C 219.097 87.671,218.932 87.628,218.526 87.628 C 218.121 87.628,217.955 87.671,218.158 87.724 " stroke="none" fill="#585858" fill-rule="evenodd"></path><path id="path3" d="M159.680 60.737 L 159.684 68.737 198.368 68.738 L 237.053 68.739 198.424 68.684 L 159.795 68.630 159.735 60.684 L 159.676 52.737 159.680 60.737 M207.670 61.368 C 207.670 64.263,207.700 65.477,207.736 64.065 C 207.772 62.653,207.773 60.285,207.736 58.802 C 207.700 57.319,207.670 58.474,207.670 61.368 M203.244 60.842 C 203.244 62.868,203.276 63.697,203.315 62.684 C 203.353 61.671,203.353 60.013,203.315 59.000 C 203.276 57.987,203.244 58.816,203.244 60.842 M175.855 59.684 C 175.856 60.379,175.895 60.638,175.942 60.259 C 175.989 59.881,175.988 59.313,175.940 58.996 C 175.892 58.680,175.854 58.989,175.855 59.684 M177.944 59.158 C 177.944 59.563,177.987 59.729,178.040 59.526 C 178.093 59.324,178.093 58.992,178.040 58.789 C 177.987 58.587,177.944 58.753,177.944 59.158 M232.905 60.842 C 232.905 61.479,232.945 61.739,232.993 61.421 C 233.041 61.103,233.041 60.582,232.993 60.263 C 232.945 59.945,232.905 60.205,232.905 60.842 M218.822 63.263 C 218.822 65.116,218.855 65.846,218.894 64.885 C 218.933 63.924,218.933 62.408,218.893 61.516 C 218.854 60.624,218.822 61.411,218.822 63.263 M214.996 62.105 C 214.996 62.511,215.040 62.676,215.092 62.474 C 215.145 62.271,215.145 61.939,215.092 61.737 C 215.040 61.534,214.996 61.700,214.996 62.105 M222.592 63.474 C 222.593 64.168,222.632 64.427,222.679 64.049 C 222.726 63.670,222.725 63.102,222.677 62.786 C 222.629 62.469,222.590 62.779,222.592 63.474 M177.733 64.632 C 177.733 65.037,177.776 65.203,177.829 65.000 C 177.882 64.797,177.882 64.466,177.829 64.263 C 177.776 64.061,177.733 64.226,177.733 64.632 M176.368 65.622 C 176.629 65.672,177.055 65.672,177.316 65.622 C 177.576 65.572,177.363 65.531,176.842 65.531 C 176.321 65.531,176.108 65.572,176.368 65.622 M230.053 65.622 C 230.313 65.672,230.739 65.672,231.000 65.622 C 231.261 65.572,231.047 65.531,230.526 65.531 C 230.005 65.531,229.792 65.572,230.053 65.622 M212.306 82.842 C 212.306 87.242,212.334 89.072,212.368 86.909 C 212.402 84.745,212.402 81.145,212.368 78.909 C 212.334 76.672,212.306 78.442,212.306 82.842 M142.895 76.991 C 143.155 77.041,143.582 77.041,143.842 76.991 C 144.103 76.941,143.889 76.899,143.368 76.899 C 142.847 76.899,142.634 76.941,142.895 76.991 M148.372 76.995 C 148.751 77.042,149.319 77.041,149.635 76.993 C 149.952 76.944,149.642 76.906,148.947 76.907 C 148.253 76.909,147.994 76.948,148.372 76.995 M249.985 82.842 C 249.985 85.505,250.015 86.566,250.052 85.199 C 250.089 83.832,250.089 81.653,250.052 80.357 C 250.015 79.060,249.985 80.179,249.985 82.842 M236.289 80.947 C 236.290 82.221,236.324 82.715,236.366 82.045 C 236.408 81.375,236.408 80.333,236.365 79.729 C 236.323 79.125,236.289 79.674,236.289 80.947 M169.541 80.421 C 169.541 81.174,169.579 81.482,169.626 81.105 C 169.673 80.729,169.673 80.113,169.626 79.737 C 169.579 79.361,169.541 79.668,169.541 80.421 M245.541 80.421 C 245.541 81.174,245.579 81.482,245.626 81.105 C 245.673 80.729,245.673 80.113,245.626 79.737 C 245.579 79.361,245.541 79.668,245.541 80.421 M124.082 82.947 C 124.082 84.511,124.116 85.150,124.156 84.368 C 124.197 83.587,124.197 82.308,124.156 81.526 C 124.116 80.745,124.082 81.384,124.082 82.947 M197.781 84.211 L 197.789 87.684 198.581 87.706 L 199.372 87.728 198.639 87.641 L 197.905 87.554 197.839 84.145 L 197.773 80.737 197.781 84.211 M268.919 83.053 C 268.920 84.211,268.955 84.657,268.998 84.046 C 269.040 83.434,269.040 82.486,268.997 81.940 C 268.953 81.394,268.918 81.895,268.919 83.053 M156.692 82.632 C 156.693 83.211,156.734 83.422,156.783 83.102 C 156.831 82.782,156.830 82.309,156.780 82.050 C 156.730 81.791,156.690 82.053,156.692 82.632 M169.546 84.947 C 169.547 85.874,169.584 86.226,169.628 85.731 C 169.673 85.236,169.672 84.478,169.627 84.047 C 169.581 83.616,169.545 84.021,169.546 84.947 M245.541 85.263 C 245.541 86.016,245.579 86.324,245.626 85.947 C 245.673 85.571,245.673 84.955,245.626 84.579 C 245.579 84.203,245.541 84.511,245.541 85.263 M263.843 84.737 C 263.845 85.200,263.888 85.365,263.938 85.103 C 263.989 84.841,263.987 84.462,263.934 84.261 C 263.881 84.059,263.840 84.274,263.843 84.737 " stroke="none" fill="#848484" fill-rule="evenodd"></path><path id="path4" d="M197.737 80.105 C 197.740 80.568,197.783 80.733,197.833 80.471 C 197.883 80.209,197.882 79.830,197.829 79.629 C 197.776 79.428,197.735 79.642,197.737 80.105 M245.539 82.842 C 245.540 83.537,245.579 83.796,245.626 83.417 C 245.673 83.039,245.672 82.470,245.624 82.154 C 245.576 81.838,245.538 82.147,245.539 82.842 M220.053 82.842 C 220.055 83.305,220.099 83.470,220.149 83.208 C 220.199 82.946,220.197 82.567,220.145 82.366 C 220.092 82.165,220.051 82.379,220.053 82.842 " stroke="none" fill="#7c7c7c" fill-rule="evenodd"></path></g></svg>