<?xml version="1.0" standalone="no"?>
<!DOCTYPE svg PUBLIC "-//W3C//DTD SVG 20010904//EN"
 "http://www.w3.org/TR/2001/REC-SVG-20010904/DTD/svg10.dtd">
<svg version="1.0" xmlns="http://www.w3.org/2000/svg"
 width="500.000000pt" height="205.000000pt" viewBox="0 0 500.000000 205.000000"
 preserveAspectRatio="xMidYMid meet">

<g transform="translate(0.000000,205.000000) scale(0.100000,-0.100000)"
fill="#000000" stroke="none">
<path d="M0 1025 l0 -1025 2500 0 2500 0 0 1025 0 1025 -2500 0 -2500 0 0
-1025z m3600 425 l0 -300 -1055 0 -1055 0 0 300 0 300 1055 0 1055 0 0 -300z
m-1970 -830 l0 -300 -645 0 -645 0 0 300 0 300 645 0 645 0 0 -300z m2960 0
l0 -300 -830 0 -830 0 0 300 0 300 830 0 830 0 0 -300z m-2570 200 c19 -19 20
-33 20 -200 0 -167 -1 -181 -20 -200 -11 -11 -33 -20 -50 -20 -17 0 -39 9 -50
20 -19 19 -20 33 -20 200 0 167 1 181 20 200 11 11 33 20 50 20 17 0 39 -9 50
-20z m-180 -9 c5 -11 10 -53 10 -93 0 -87 -16 -118 -61 -118 l-29 0 0 -95 c0
-88 -1 -95 -20 -95 -19 0 -20 7 -20 210 l0 210 55 0 c43 0 56 -4 65 -19z m404
3 c3 -9 6 -49 6 -89 0 -60 -3 -76 -17 -85 -17 -10 -17 -10 0 -20 14 -9 17 -26
17 -110 0 -93 -1 -100 -20 -100 -19 0 -20 7 -20 100 l0 100 -31 0 -30 0 3
-100 c3 -98 3 -100 -19 -100 l-23 0 0 210 0 210 64 0 c49 0 65 -4 70 -16z
m286 -179 l0 -195 35 0 c24 0 35 -5 35 -15 0 -12 -13 -15 -55 -15 l-55 0 0
210 c0 203 1 210 20 210 19 0 20 -7 20 -195z m230 191 c0 -5 45 -309 56 -373
6 -39 5 -43 -14 -43 -16 0 -21 9 -28 58 -9 57 -9 57 -44 57 -33 0 -35 -2 -38
-35 -4 -61 -12 -80 -30 -80 -17 0 -17 12 12 210 l30 210 28 0 c15 0 28 -2 28
-4z"/>
<path d="M1604 1657 c-2 -7 -3 -105 -2 -217 3 -185 5 -205 20 -208 16 -3 18
12 20 180 l3 183 20 -180 c20 -180 20 -180 45 -180 29 0 31 7 51 215 l14 135
5 -175 c4 -157 7 -175 23 -178 16 -3 17 11 15 215 l-3 218 -30 0 -29 0 -18
-140 c-9 -77 -17 -160 -18 -185 -2 -80 -17 -15 -34 154 -10 88 -19 163 -22
168 -8 13 -54 9 -60 -5z"/>
<path d="M1910 1650 c-19 -19 -20 -33 -20 -200 0 -167 1 -181 20 -200 11 -11
33 -20 50 -20 17 0 39 9 50 20 19 19 20 33 20 200 0 167 -1 181 -20 200 -11
11 -33 20 -50 20 -17 0 -39 -9 -50 -20z m69 -24 c8 -9 11 -66 9 -182 l-3 -169
-25 0 -25 0 -3 169 c-2 161 3 196 28 196 4 0 13 -6 19 -14z"/>
<path d="M2080 1650 c0 -28 39 -367 45 -397 4 -17 13 -23 31 -23 13 0 27 6 29
13 2 6 14 95 25 197 11 102 22 194 23 205 1 14 -4 20 -18 20 -22 0 -20 12 -46
-248 -6 -65 -13 -117 -14 -115 -2 2 -8 66 -15 143 -16 189 -22 219 -43 223
-12 2 -17 -3 -17 -18z"/>
<path d="M2285 1658 c-3 -7 -4 -106 -3 -218 3 -197 4 -205 23 -205 19 0 20 7
20 215 0 197 -1 215 -18 218 -9 2 -19 -3 -22 -10z"/>
<path d="M2400 1450 c0 -189 2 -220 15 -220 13 0 15 27 16 183 1 194 7 189 29
-28 7 -66 14 -127 15 -135 2 -19 43 -26 50 -8 3 7 14 85 24 173 l19 160 3
-170 c3 -143 6 -170 19 -170 13 0 15 32 18 218 l2 217 -29 0 c-16 0 -31 -6
-34 -13 -2 -6 -13 -87 -22 -179 -10 -93 -20 -166 -22 -164 -2 2 -13 79 -24
171 -10 92 -22 171 -25 176 -3 5 -16 9 -30 9 l-24 0 0 -220z"/>
<path d="M2680 1450 c0 -213 1 -220 20 -220 19 0 20 7 20 220 0 213 -1 220
-20 220 -19 0 -20 -7 -20 -220z"/>
<path d="M2800 1665 c0 -3 -1 -101 -1 -217 l0 -213 51 -3 c45 -3 50 -1 50 17
0 17 -6 21 -30 21 l-30 0 0 85 0 85 30 0 c23 0 30 4 30 20 0 16 -7 20 -30 20
l-30 0 0 75 0 75 30 0 c23 0 30 4 30 20 0 17 -7 20 -50 20 -27 0 -50 -2 -50
-5z"/>
<path d="M2965 1658 c-3 -7 -4 -106 -3 -218 3 -185 5 -205 20 -208 16 -3 18
12 20 175 l3 178 18 -150 c26 -212 25 -207 56 -203 l26 3 0 215 c0 184 -2 215
-15 215 -13 0 -16 -27 -19 -165 l-3 -165 -22 165 -21 165 -28 3 c-16 2 -29 -2
-32 -10z"/>
<path d="M3167 1663 c-16 -15 -6 -33 18 -33 l26 0 -1 -197 c-2 -186 0 -198 17
-198 17 0 18 14 21 198 2 189 3 197 22 197 13 0 20 7 20 20 0 18 -7 20 -58 20
-32 0 -62 -3 -65 -7z"/>
<path d="M3372 1654 c-21 -15 -22 -20 -22 -204 0 -184 1 -189 22 -204 31 -22
74 -20 98 4 19 19 20 33 20 200 0 167 -1 181 -20 200 -24 24 -67 26 -98 4z
m67 -28 c8 -9 11 -66 9 -182 l-3 -169 -25 0 -25 0 -3 169 c-2 161 3 196 28
196 4 0 13 -6 19 -14z"/>
<path d="M435 830 c-9 -15 3 -30 26 -30 18 0 19 -9 19 -200 0 -193 1 -200 20
-200 19 0 20 7 20 199 0 199 0 200 23 203 12 2 22 10 22 18 0 11 -15 16 -62
18 -35 2 -64 -2 -68 -8z"/>
<path d="M624 827 c-2 -7 -3 -105 -2 -217 l3 -205 50 0 c39 0 50 4 53 18 3 14
-4 17 -32 17 l-36 0 0 85 0 85 36 0 c28 0 35 3 32 18 -2 11 -14 18 -36 20
l-32 3 0 75 0 74 35 0 c28 0 35 4 35 20 0 17 -7 20 -50 20 -32 0 -52 -5 -56
-13z"/>
<path d="M835 828 c-9 -25 -63 -413 -58 -420 2 -5 11 -8 18 -8 15 0 18 11 30
83 5 34 8 37 40 37 33 0 35 -2 36 -32 2 -52 13 -83 33 -86 22 -5 22 -9 -14
233 -32 222 -28 205 -56 205 -13 0 -27 -6 -29 -12z m54 -255 c1 -8 -12 -13
-30 -13 -23 0 -30 4 -26 14 3 8 8 47 12 87 11 127 17 132 31 24 7 -55 13 -106
13 -112z"/>
<path d="M977 833 c-16 -15 -6 -33 18 -33 l25 0 0 -201 c0 -186 1 -200 18
-197 15 3 17 22 20 201 2 189 3 197 22 197 13 0 20 7 20 20 0 18 -7 20 -58 20
-32 0 -62 -3 -65 -7z"/>
<path d="M1160 620 c0 -213 1 -220 20 -220 19 0 20 7 20 105 0 104 0 105 24
105 32 0 36 -15 36 -122 0 -80 2 -89 18 -86 15 3 17 17 20 103 2 84 0 102 -14
112 -15 11 -15 13 0 28 12 12 16 35 16 86 0 88 -17 109 -90 109 l-50 0 0 -220z
m94 164 c3 -9 6 -35 6 -59 0 -59 -8 -75 -36 -75 -23 0 -24 3 -24 75 0 72 1 75
24 75 13 0 27 -7 30 -16z"/>
<path d="M1394 826 c-18 -13 -19 -28 -19 -206 0 -178 1 -193 19 -206 28 -20
80 -18 99 4 15 16 17 45 17 204 0 166 -2 187 -18 201 -23 21 -71 22 -98 3z
m60 -22 c14 -5 16 -31 16 -186 l0 -179 -27 3 -28 3 -3 169 c-2 116 1 173 9
182 13 16 12 16 33 8z"/>
<path d="M3045 828 c-3 -7 -4 -106 -3 -218 l3 -205 54 0 c79 1 81 5 81 215 0
131 -3 181 -13 194 -18 24 -114 35 -122 14z m89 -44 c3 -9 6 -82 6 -164 0 -82
-3 -155 -6 -164 -3 -9 -17 -16 -30 -16 l-24 0 0 180 0 180 24 0 c13 0 27 -7
30 -16z"/>
<path d="M3255 828 c-3 -7 -4 -106 -3 -218 3 -197 4 -205 23 -205 19 0 20 7
20 215 0 197 -1 215 -18 218 -9 2 -19 -3 -22 -10z"/>
<path d="M3390 820 c-19 -19 -20 -33 -20 -200 0 -167 1 -181 20 -200 20 -20
55 -25 98 -14 21 6 22 11 22 110 l0 104 -35 0 c-28 0 -35 -4 -35 -20 0 -11 7
-20 15 -20 12 0 15 -14 15 -70 0 -67 -1 -70 -24 -70 -13 0 -27 7 -30 16 -3 9
-6 87 -6 174 0 128 3 160 15 170 22 19 45 -5 45 -46 0 -27 4 -34 20 -34 17 0
20 7 20 40 0 49 -27 80 -70 80 -17 0 -39 -9 -50 -20z"/>
<path d="M3584 827 c-2 -7 -3 -105 -2 -217 3 -186 5 -205 21 -208 16 -3 17 11
18 175 l1 178 18 -139 c30 -226 28 -218 58 -214 l27 3 0 215 c0 197 -1 215
-17 218 -17 3 -18 -10 -18 -159 0 -89 -2 -160 -4 -158 -2 2 -11 65 -21 139
-22 179 -22 180 -51 180 -14 0 -27 -6 -30 -13z"/>
<path d="M3800 620 c0 -206 1 -221 18 -218 16 3 17 21 17 218 0 197 -1 215
-17 218 -17 3 -18 -12 -18 -218z"/>
<path d="M3915 828 c-3 -7 -4 -106 -3 -218 l3 -205 54 0 c79 1 81 5 81 215 0
131 -3 181 -13 194 -18 24 -114 35 -122 14z m89 -44 c3 -9 6 -82 6 -164 0 -82
-3 -155 -6 -164 -3 -9 -17 -16 -30 -16 l-24 0 0 180 0 180 24 0 c13 0 27 -7
30 -16z"/>
<path d="M4165 830 c-5 -8 -24 -128 -62 -387 -5 -38 -4 -43 14 -43 21 0 33 32
33 91 0 26 3 29 34 29 37 0 40 -3 51 -77 5 -33 11 -43 26 -43 10 0 19 2 19 5
0 19 -62 420 -66 427 -7 11 -42 10 -49 -2z m39 -136 c3 -48 9 -97 12 -110 6
-22 3 -24 -26 -24 -31 0 -32 1 -26 33 3 17 8 67 12 110 4 42 10 77 14 77 4 0
10 -39 14 -86z"/>
<path d="M4335 828 c-3 -7 -4 -106 -3 -218 l3 -205 54 0 c79 1 81 5 81 215 0
131 -3 181 -13 194 -18 24 -114 35 -122 14z m90 -208 l0 -175 -27 -3 -28 -3 0
181 0 181 28 -3 27 -3 0 -175z"/>
<path d="M1947 803 c-4 -3 -7 -86 -7 -184 0 -154 2 -178 16 -183 38 -15 44 9
44 183 0 117 -4 171 -12 179 -13 13 -31 16 -41 5z"/>
<path d="M1760 715 c0 -84 1 -86 23 -83 21 3 22 8 22 83 0 75 -1 80 -22 83
-22 3 -23 1 -23 -83z"/>
<path d="M2150 726 c0 -78 7 -92 41 -81 18 6 20 14 17 78 -3 70 -4 72 -30 75
l-28 3 0 -75z"/>
<path d="M2727 770 c-3 -14 -9 -56 -12 -95 -3 -38 -8 -80 -12 -92 -4 -20 -1
-23 26 -23 36 0 35 -6 17 135 -8 65 -15 91 -19 75z"/>
</g>
</svg>
